<?xml version="1.0" standalone="no"?>
<!DOCTYPE svg PUBLIC "-//W3C//DTD SVG 20010904//EN"
 "http://www.w3.org/TR/2001/REC-SVG-20010904/DTD/svg10.dtd">
<svg version="1.0" xmlns="http://www.w3.org/2000/svg"
 width="1280.000000pt" height="1180.000000pt" viewBox="0 0 1280.000000 1180.000000"
 preserveAspectRatio="xMidYMid meet">
<g transform="translate(0.000000,1180.000000) scale(0.100000,-0.100000)"
fill="#000000" stroke="none">
<path d="M11871 11060 c-20 -17 -35 -40 -37 -55 -3 -33 -43 -77 -104 -116 -25
-16 -38 -29 -29 -29 9 0 22 7 29 15 14 17 46 20 55 5 7 -12 -69 -124 -119
-172 -22 -21 -49 -38 -62 -38 -27 0 -40 -16 -19 -24 21 -7 19 -23 -7 -58 -36
-52 3 -27 47 30 45 56 71 68 61 26 -6 -22 -4 -25 14 -19 11 3 20 4 20 1 0 -10
-59 -92 -79 -110 -24 -22 -27 -39 -7 -55 17 -15 44 -5 51 20 8 24 26 24 56 0
23 -18 23 -20 6 -39 -11 -11 -15 -26 -11 -37 9 -23 -14 -36 -43 -22 -13 5 -24
8 -26 6 -2 -2 -20 -25 -40 -50 -20 -25 -37 -53 -37 -61 0 -9 -10 -22 -22 -31
-13 -8 -34 -24 -47 -36 -28 -24 -41 -20 -41 15 0 27 32 64 55 64 8 0 15 8 15
18 0 10 11 33 25 52 29 39 31 50 10 50 -8 0 -15 -4 -15 -10 0 -5 -22 -35 -50
-65 -27 -30 -50 -61 -50 -68 0 -25 -73 -107 -95 -107 -18 0 -27 30 -14 46 6 7
8 18 5 23 -4 5 -2 12 4 16 19 12 51 86 47 108 -4 19 -4 18 -6 -4 -1 -34 -30
-58 -62 -55 -39 4 -49 14 -49 47 0 18 -4 28 -10 24 -6 -3 -13 1 -16 10 -9 21
99 130 121 121 10 -4 15 1 15 14 0 11 -6 20 -14 20 -46 0 -11 46 117 157 48
41 48 42 42 87 -4 25 -11 43 -16 41 -4 -3 -6 -19 -2 -35 5 -27 3 -30 -19 -30
-13 0 -35 -11 -48 -25 -13 -14 -28 -25 -34 -25 -6 -1 -20 -15 -31 -33 -11 -18
-30 -33 -42 -35 -13 -2 -31 -16 -42 -31 -11 -16 -37 -33 -60 -39 -25 -8 -48
-24 -63 -45 -26 -37 -58 -66 -74 -67 -6 0 -25 -18 -42 -39 -35 -43 -68 -59
-86 -41 -8 8 -5 15 12 28 31 24 62 72 62 98 0 12 -7 35 -15 50 -8 16 -15 36
-15 44 0 8 -10 21 -21 29 -18 11 -23 11 -30 -1 -12 -18 -11 -32 2 -45 9 -9 8
-18 -5 -37 -9 -15 -21 -26 -26 -26 -6 0 -10 -4 -10 -10 0 -15 21 -12 41 6 22
20 35 13 42 -22 5 -26 3 -28 -45 -38 -16 -4 -28 -13 -28 -21 0 -20 -68 -95
-86 -95 -8 0 -14 10 -14 25 0 14 -8 29 -20 35 -17 9 -22 5 -41 -34 -14 -31
-19 -55 -14 -74 4 -21 1 -34 -11 -47 -16 -16 -18 -16 -35 6 -10 13 -19 22 -21
19 -23 -30 -42 -68 -40 -81 2 -9 -5 -22 -14 -30 -15 -12 -18 -12 -28 3 -10 16
-14 15 -43 -13 -37 -37 -106 -54 -128 -33 -7 8 -21 14 -29 14 -26 0 -18 38 12
57 15 10 33 26 40 35 7 10 21 18 31 18 10 0 24 6 30 14 15 18 -14 29 -79 30
-43 1 -47 4 -41 35 0 5 10 13 21 16 11 3 20 13 20 21 0 8 10 14 25 14 21 0 25
5 25 28 0 15 3 37 6 50 4 12 2 22 -2 22 -5 -1 -47 -37 -94 -80 -78 -74 -100
-90 -100 -74 0 8 36 54 78 101 41 46 43 75 2 33 -16 -17 -30 -35 -30 -41 0 -6
-6 -9 -12 -6 -7 2 -24 -4 -37 -14 -13 -11 -30 -19 -37 -19 -8 0 -14 -7 -14
-15 0 -13 -3 -13 -20 -3 -23 15 -21 34 4 32 10 -1 16 6 16 20 0 12 16 40 35
62 34 38 35 39 13 45 -16 3 -23 12 -22 27 0 13 -7 24 -18 28 -24 7 -23 31 3
44 12 7 18 17 15 26 -6 14 50 93 66 94 4 0 23 -17 43 -37 l35 -38 18 21 c9 12
27 27 40 33 12 7 22 19 22 28 0 9 12 31 26 50 14 19 23 37 20 40 -9 10 -34
-16 -40 -43 -6 -22 -11 -25 -32 -20 -29 8 -54 -8 -54 -34 0 -13 -6 -16 -25
-12 -30 5 -31 10 -4 62 13 25 27 39 37 38 9 -2 27 13 41 35 13 20 30 37 37 37
8 0 20 13 28 29 l15 28 -47 -4 c-64 -6 -73 -10 -66 -27 3 -8 -10 -31 -34 -55
-29 -30 -44 -39 -60 -34 -18 4 -44 -17 -137 -108 -126 -124 -133 -129 -150
-123 -6 3 -18 -2 -25 -11 -7 -8 -21 -15 -31 -15 -26 0 -235 -214 -264 -270 -9
-17 -22 -30 -29 -30 -7 0 -32 -24 -55 -54 -23 -30 -53 -62 -67 -71 -13 -8 -24
-24 -24 -35 0 -11 -5 -20 -10 -20 -6 0 -23 -12 -37 -26 -15 -15 -40 -33 -57
-41 -17 -7 -46 -25 -65 -38 -44 -32 -63 -31 -98 3 -15 15 -43 34 -60 41 -18 7
-33 20 -33 28 0 34 -187 82 -205 53 -5 -8 -10 -8 -21 1 -15 12 -30 0 -146
-113 -32 -31 -66 -59 -78 -63 -11 -3 -20 -13 -20 -22 0 -13 -35 -60 -102 -137
-15 -18 -29 11 -33 67 -2 31 -7 62 -12 69 -4 7 -8 18 -8 23 0 17 -71 46 -119
48 -34 1 -45 6 -43 17 1 9 -5 14 -15 12 -9 -1 -19 2 -22 7 -10 16 -68 -8 -93
-37 -20 -24 -24 -25 -38 -12 -12 12 -13 23 -4 53 10 37 26 46 46 26 9 -9 18
-5 38 15 14 14 31 26 36 26 6 0 22 9 36 20 14 11 34 20 44 20 12 0 21 10 25
28 8 34 61 81 92 82 17 0 22 6 22 24 0 14 7 27 18 31 9 3 31 24 49 46 28 35
31 44 22 67 -6 15 -19 36 -29 47 -13 14 -16 25 -10 35 13 21 12 57 -2 66 -7 4
-24 -7 -42 -29 -34 -41 -47 -45 -67 -21 -7 9 -21 13 -33 10 -11 -3 -28 2 -38
11 -17 15 -21 15 -54 0 -19 -9 -55 -17 -79 -17 -25 0 -68 -9 -97 -21 -76 -29
-151 -33 -196 -8 -56 29 -68 24 -33 -16 35 -40 38 -57 15 -79 -23 -24 -59 -20
-78 9 -11 17 -26 25 -46 25 -25 0 -29 -3 -27 -27 2 -22 -3 -28 -30 -35 -33 -9
-46 -38 -18 -38 9 0 15 -9 15 -23 0 -13 5 -28 12 -35 8 -8 8 -15 -2 -27 -18
-21 -37 -19 -51 7 l-12 22 -18 -23 c-11 -13 -19 -32 -19 -42 0 -24 -20 -24
-80 2 -45 19 -50 20 -78 5 -42 -22 -51 -20 -62 9 -6 16 -17 25 -30 25 -46 0
-60 17 -53 65 5 40 3 48 -21 71 -14 15 -26 31 -26 36 0 6 -15 7 -37 4 -136
-24 -169 -17 -139 28 l16 26 -64 0 c-53 0 -69 4 -85 21 -13 14 -28 19 -47 17
-28 -3 -29 -6 -32 -58 -4 -85 -10 -100 -42 -112 -17 -5 -28 -14 -25 -18 3 -5
1 -19 -4 -33 -5 -13 -6 -28 -2 -33 4 -5 14 -28 21 -52 10 -32 11 -45 2 -54 -9
-9 -15 -9 -24 0 -15 15 -28 16 -28 2 0 -5 6 -10 14 -10 8 0 17 -15 20 -36 6
-30 3 -40 -25 -72 -89 -103 -137 -149 -160 -155 -13 -3 -42 -29 -64 -57 -22
-27 -43 -50 -47 -50 -11 0 -80 -70 -106 -109 -24 -35 -23 -61 2 -61 22 0 26
-26 7 -44 -25 -23 -41 -20 -41 8 0 44 -23 49 -69 15 -44 -31 -65 -32 -43 -1
23 33 25 44 8 54 -13 7 -16 17 -11 39 8 35 -16 41 -38 9 -19 -28 -89 -79 -107
-80 -8 0 -34 -19 -57 -42 -38 -37 -46 -41 -63 -30 -25 16 -30 15 -30 -2 0 -9
-12 -16 -32 -18 -24 -2 -36 -10 -46 -30 -9 -19 -21 -28 -38 -28 -13 0 -33 -6
-44 -12 -16 -10 -23 -10 -36 4 -24 24 -12 44 37 60 46 15 64 38 31 38 -11 0
-27 3 -36 6 -23 9 -20 73 4 104 17 22 22 23 39 13 12 -7 25 -13 31 -13 14 0
12 28 -2 33 -25 8 60 147 90 147 7 0 17 11 21 23 9 23 38 35 129 52 18 4 29
11 26 17 -3 5 4 20 16 33 23 24 20 45 -6 45 -22 0 -16 14 17 39 42 31 38 71
-8 83 -23 6 -33 14 -33 28 0 27 -42 52 -82 48 -27 -2 -34 -8 -36 -30 -4 -35
-29 -57 -38 -34 -14 37 -26 13 -22 -49 2 -54 0 -67 -16 -78 -16 -12 -17 -16
-5 -34 10 -18 10 -24 0 -37 -8 -9 -20 -16 -27 -16 -8 0 -14 -9 -14 -20 0 -11
-4 -20 -10 -20 -5 0 -10 5 -10 10 0 21 -19 9 -34 -22 -11 -21 -13 -35 -6 -42
5 -5 10 -21 10 -34 0 -19 -4 -22 -20 -17 -15 5 -20 2 -20 -14 0 -22 -34 -81
-67 -118 -18 -18 -27 -22 -41 -14 -14 7 -21 5 -32 -12 -8 -12 -15 -31 -15 -41
0 -11 -6 -21 -12 -23 -7 -3 -13 2 -13 11 0 10 -9 16 -25 16 -14 0 -25 -6 -25
-13 0 -8 -9 -22 -20 -32 -11 -10 -20 -26 -20 -36 0 -10 -11 -31 -25 -48 -22
-26 -24 -33 -13 -50 11 -18 9 -24 -17 -51 -16 -16 -44 -40 -62 -52 -18 -13
-33 -29 -33 -35 0 -7 -13 -19 -29 -28 -16 -8 -32 -24 -36 -35 -7 -22 -20 -26
-30 -9 -4 5 5 28 19 49 36 55 32 62 -8 17 -19 -21 -40 -39 -48 -40 -7 -2 -33
-24 -57 -50 -24 -26 -52 -47 -62 -47 -10 0 -21 -4 -24 -10 -3 -5 -26 -10 -50
-10 -35 0 -45 -4 -50 -20 -8 -25 -33 -26 -42 -2 -9 25 -23 31 -49 22 -15 -6
-33 -3 -59 10 -48 25 -69 10 -55 -39 7 -26 5 -33 -11 -41 -10 -6 -19 -21 -19
-34 0 -29 -17 -37 -65 -29 -45 7 -74 -16 -67 -52 5 -28 -23 -78 -41 -72 -6 2
-22 -18 -34 -44 -27 -55 -98 -165 -113 -174 -6 -4 -22 -24 -35 -46 -14 -21
-38 -45 -55 -54 -24 -13 -30 -22 -30 -50 0 -42 -40 -78 -76 -69 -24 6 -34 -9
-14 -21 6 -3 10 -17 10 -31 0 -18 -7 -28 -27 -35 -16 -5 -36 -23 -45 -39 -19
-34 -48 -40 -48 -10 0 16 -7 20 -30 20 -19 0 -30 5 -30 14 0 15 -29 11 -65
-11 -19 -11 -19 -12 0 -33 16 -18 17 -25 7 -54 -7 -18 -12 -42 -12 -53 0 -11
-7 -26 -15 -33 -8 -7 -15 -21 -15 -31 0 -10 -11 -26 -26 -35 -15 -10 -23 -23
-19 -31 3 -9 -2 -17 -13 -20 -10 -2 -22 -19 -28 -36 -5 -18 -19 -36 -32 -42
-12 -5 -22 -14 -22 -20 0 -5 -13 -26 -29 -45 -25 -29 -31 -32 -45 -21 -22 19
-20 31 11 63 22 23 24 30 13 43 -11 13 -9 19 9 39 18 19 21 30 15 61 -5 29 -2
43 16 67 26 35 18 51 -10 20 -25 -26 -28 -27 -52 -5 -11 9 -18 11 -18 5 0 -7
5 -12 11 -12 5 0 17 -16 25 -36 14 -34 14 -37 -5 -51 -12 -8 -21 -25 -21 -38
0 -14 -12 -38 -28 -55 -27 -31 -27 -31 -59 -15 -22 11 -41 13 -62 8 -41 -11
-27 -32 25 -39 86 -12 85 -11 78 -49 -5 -28 -3 -35 10 -35 19 0 21 -19 5 -53
-9 -20 -17 -24 -60 -23 -27 1 -49 -3 -49 -8 0 -6 -12 -20 -27 -33 l-28 -22 25
6 c14 3 31 10 38 16 9 7 16 7 24 -1 13 -13 2 -32 -18 -32 -8 0 -14 -8 -14 -19
0 -10 -6 -24 -14 -30 -8 -7 -17 -23 -20 -36 -7 -29 -42 -34 -60 -10 -10 14
-19 8 -59 -39 -31 -36 -47 -64 -47 -81 0 -19 -4 -26 -14 -22 -17 7 -41 -18
-64 -65 -12 -23 -25 -34 -45 -36 -18 -2 -27 1 -27 11 0 18 -36 50 -51 45 -19
-6 -21 -69 -3 -89 15 -17 14 -20 -10 -46 -14 -15 -36 -41 -49 -57 -23 -28 -26
-29 -57 -16 -30 12 -34 12 -49 -8 -17 -24 -20 -116 -6 -224 7 -55 7 -58 -14
-58 -14 0 -21 6 -21 20 0 11 -4 20 -10 20 -16 0 -129 -104 -130 -120 0 -8 74
-5 93 4 13 6 23 4 34 -7 19 -18 9 -54 -16 -62 -13 -4 -17 -12 -14 -25 3 -11 0
-20 -6 -20 -6 0 -11 4 -11 9 0 5 -12 11 -26 13 -15 2 -32 12 -38 23 -23 42
-43 45 -48 8 -2 -20 4 -34 20 -46 19 -16 21 -25 16 -55 -9 -48 -21 -72 -38
-72 -16 0 -26 21 -26 55 0 31 -23 50 -39 31 -8 -10 -9 -16 -1 -21 19 -12 11
-38 -10 -32 -16 4 -20 0 -20 -20 0 -18 -8 -28 -30 -36 -17 -6 -30 -17 -30 -24
0 -21 -20 -25 -52 -12 -28 11 -32 10 -49 -12 -10 -13 -17 -30 -14 -37 6 -16
-4 -42 -17 -42 -5 0 -7 8 -3 19 6 21 -24 39 -35 21 -11 -18 1 -60 16 -60 21 0
17 -28 -5 -42 -15 -9 -18 -19 -14 -40 7 -34 -15 -38 -42 -8 -21 23 -55 27 -55
5 0 -8 6 -15 14 -15 17 0 29 -31 21 -53 -6 -14 -34 -27 -62 -27 -7 0 -13 11
-13 25 0 35 -28 22 -38 -19 -5 -19 -18 -36 -34 -44 -15 -7 -30 -21 -33 -32 -4
-13 -15 -20 -31 -20 -39 0 -63 -17 -57 -40 4 -14 0 -20 -11 -20 -19 0 -21 -23
-4 -49 9 -15 8 -28 -5 -63 -23 -58 -21 -76 5 -80 17 -2 26 -15 37 -50 15 -49
10 -71 -11 -50 -17 17 -45 15 -52 -3 -3 -9 -13 -15 -22 -13 -9 2 -19 -3 -21
-9 -7 -18 32 -16 47 2 14 17 40 20 40 6 0 -16 -35 -71 -48 -76 -7 -3 -23 0
-34 6 -16 8 -23 8 -29 -2 -8 -11 -12 -11 -23 4 -7 9 -22 17 -33 17 -11 0 -28
10 -36 23 -16 21 -16 20 -14 -28 2 -45 0 -50 -21 -53 -12 -2 -22 -8 -22 -13 0
-6 5 -7 10 -4 15 9 72 -52 68 -72 -2 -10 -11 -19 -21 -21 -13 -3 -17 3 -17 23
0 23 -2 25 -21 15 -17 -10 -21 -8 -26 9 -6 24 -35 28 -53 6 -7 -8 -26 -15 -43
-15 -29 0 -29 -1 -24 -36 5 -30 1 -42 -21 -70 -16 -21 -36 -34 -49 -34 -16 0
-23 -6 -23 -20 0 -11 -19 -39 -42 -62 -45 -45 -56 -61 -84 -115 -10 -21 -24
-33 -36 -33 -14 0 -18 -5 -14 -15 3 -8 -3 -20 -13 -27 -9 -7 -20 -21 -24 -30
-3 -10 -15 -18 -24 -18 -10 0 -27 -9 -36 -21 -17 -19 -20 -19 -42 -5 -19 13
-25 13 -34 2 -9 -11 -4 -18 24 -35 40 -23 45 -38 13 -43 -14 -2 -24 -12 -28
-28 -4 -19 -13 -26 -39 -28 -18 -2 -39 2 -48 9 -13 11 -18 10 -29 -6 -8 -11
-22 -29 -31 -39 -11 -14 -13 -21 -5 -24 24 -8 12 -32 -15 -32 -19 0 -40 -14
-74 -50 -26 -27 -54 -50 -63 -50 -10 0 -16 -8 -16 -21 0 -12 -14 -34 -32 -51
-26 -24 -37 -28 -64 -24 -27 6 -32 3 -37 -16 -4 -12 -2 -27 4 -34 13 -16 1
-42 -24 -50 -12 -4 -38 -25 -57 -48 -19 -22 -81 -85 -137 -139 -57 -55 -114
-119 -128 -143 -14 -24 -30 -44 -35 -44 -6 0 -10 -6 -10 -12 0 -7 -14 -29 -29
-48 -28 -33 -30 -34 -48 -17 -11 9 -31 17 -46 17 -14 0 -39 11 -55 25 -40 33
-72 33 -72 0 0 -13 6 -28 13 -32 6 -4 20 -24 31 -44 16 -32 16 -41 5 -73 -15
-41 -7 -56 22 -38 39 25 41 4 8 -85 -5 -13 -5 -33 0 -45 4 -13 6 -30 3 -38 -5
-13 -3 -13 12 -1 15 13 19 13 27 0 5 -8 9 -29 9 -46 0 -33 5 -37 48 -33 30 2
28 -13 -8 -66 -25 -38 -28 -48 -17 -64 6 -11 17 -20 23 -20 5 0 23 -14 39 -30
18 -19 39 -30 56 -30 21 0 28 -5 31 -23 3 -19 8 -22 42 -20 41 3 146 48 146
63 0 11 40 34 47 27 5 -6 -42 -82 -57 -92 -5 -3 -10 -13 -10 -22 0 -8 -9 -28
-21 -44 -23 -33 -13 -40 13 -9 49 57 138 172 138 179 0 7 64 98 90 129 18 21
41 13 51 -17 11 -30 49 -47 97 -42 27 2 52 -15 52 -35 0 -8 -6 -14 -14 -14 -8
0 -24 -9 -37 -20 l-24 -19 22 -1 c12 0 42 -11 67 -25 25 -14 51 -25 59 -25 8
0 22 -9 32 -20 30 -33 57 -21 88 37 15 29 48 69 73 90 25 21 74 62 107 91 34
29 67 57 72 61 6 5 18 18 27 30 10 11 29 21 42 21 16 0 32 11 46 30 12 16 32
33 46 36 13 4 30 14 37 23 7 9 26 23 42 31 17 9 34 26 40 38 5 12 17 22 25 22
16 1 90 65 90 79 0 5 6 14 14 21 8 6 13 17 10 25 -6 15 47 34 86 32 22 -2 25
2 25 31 0 22 7 39 20 48 16 12 18 18 7 34 -11 18 -10 20 13 20 39 0 126 42
120 58 -3 8 -2 19 2 25 4 7 8 19 8 27 0 28 40 21 87 -15 27 -20 49 -31 53 -25
13 21 33 9 38 -22 16 -88 20 -100 43 -110 13 -6 33 -27 45 -47 20 -33 20 -36
3 -48 -23 -17 -33 -16 -40 2 -7 18 -24 20 -24 3 0 -6 -7 -19 -15 -28 -13 -15
-13 -19 4 -37 21 -22 18 -33 -8 -33 -9 0 -22 -9 -29 -21 -7 -11 -27 -27 -45
-34 -19 -8 -25 -14 -14 -15 25 0 21 -25 -8 -48 -16 -12 -25 -30 -25 -47 0 -29
-74 -125 -97 -125 -7 0 -16 -8 -20 -17 -3 -10 -14 -25 -23 -34 -22 -22 -44
-170 -37 -247 5 -64 26 -103 65 -121 12 -6 22 -20 22 -31 0 -11 4 -20 9 -20 5
0 12 -11 15 -25 5 -18 12 -24 29 -22 18 2 22 -3 22 -28 0 -25 4 -31 27 -33 14
-2 32 -10 38 -18 7 -8 19 -14 27 -14 7 0 17 -8 20 -17 4 -10 14 -23 22 -29 13
-10 13 -14 2 -28 -8 -10 -21 -14 -32 -11 -14 5 -19 1 -19 -15 0 -12 -9 -24
-24 -29 -13 -5 -26 -17 -30 -26 -3 -10 -15 -15 -28 -14 -13 2 -33 -2 -45 -9
-12 -7 -28 -12 -36 -12 -8 0 -22 -11 -31 -25 -10 -16 -26 -25 -41 -25 -25 0
-35 -23 -16 -35 5 -3 -5 -27 -22 -55 -22 -34 -37 -48 -48 -44 -12 3 -19 -3
-23 -21 -4 -14 -11 -25 -16 -25 -6 0 -10 -6 -10 -14 0 -30 -241 -213 -262
-200 -5 3 -8 14 -8 25 0 10 -4 19 -8 19 -9 0 -32 -59 -32 -82 0 -17 -89 -88
-110 -88 -6 0 -20 -10 -30 -23 -16 -19 -22 -20 -39 -9 -28 17 -31 16 -31 -12
0 -37 -16 -40 -55 -10 -39 30 -44 28 -15 -6 29 -33 25 -45 -24 -80 -52 -35
-53 -35 -60 -12 -3 9 -4 4 -2 -11 3 -22 -2 -30 -19 -37 -13 -5 -26 -14 -30
-19 -3 -6 -15 -11 -25 -11 -10 0 -33 -16 -52 -35 -25 -27 -39 -34 -55 -30 -18
4 -24 0 -29 -19 -7 -29 -59 -80 -73 -72 -13 8 -79 -23 -86 -42 -3 -7 5 -22 16
-31 17 -14 20 -24 15 -44 -7 -28 -33 -36 -53 -16 -8 8 -13 8 -17 0 -4 -6 -11
-11 -17 -11 -15 0 -10 22 9 36 16 12 16 14 -3 28 -18 13 -22 13 -37 -1 -10 -9
-18 -22 -18 -29 0 -7 -12 -19 -27 -26 -16 -7 -29 -23 -31 -36 -2 -12 -7 -22
-12 -22 -5 0 -12 -9 -15 -20 -8 -25 -45 -27 -45 -2 0 12 -6 8 -20 -13 -11 -16
-20 -24 -20 -17 0 9 -7 9 -31 -3 -21 -11 -29 -21 -25 -32 5 -11 2 -14 -10 -9
-20 8 -45 -11 -38 -28 7 -19 -23 -39 -48 -33 -24 7 -48 -8 -48 -30 0 -11 8
-12 37 -7 31 6 35 5 30 -10 -4 -9 -10 -23 -14 -33 -5 -13 -2 -15 15 -11 26 7
45 -13 40 -44 -2 -15 3 -24 14 -26 11 -2 18 5 20 20 4 28 44 33 42 6 -1 -10 3
-18 8 -18 6 0 8 12 5 26 -5 31 16 43 45 25 15 -9 27 -9 53 0 19 7 37 10 41 6
14 -14 -7 -37 -46 -48 -23 -7 -59 -30 -81 -51 -42 -41 -79 -50 -79 -19 0 14
-6 17 -26 13 -19 -3 -24 -9 -21 -23 8 -28 -19 -45 -41 -26 -16 14 -19 14 -42
-3 -20 -15 -22 -21 -12 -33 9 -10 10 -29 6 -58 -6 -37 -5 -42 7 -33 8 6 27 14
42 18 16 4 39 17 52 31 13 13 38 26 55 30 16 4 30 10 30 15 0 4 15 14 33 21
17 7 51 31 74 52 33 31 46 37 67 31 14 -3 29 -10 31 -15 8 -13 -32 -49 -55
-49 -10 0 -24 -9 -30 -20 -7 -12 -21 -20 -38 -20 -33 -1 -62 -21 -62 -44 0 -9
-6 -25 -12 -36 -11 -17 -10 -22 2 -30 29 -19 50 -12 50 18 0 19 3 23 9 14 7
-12 12 -12 30 0 12 7 24 21 27 31 4 14 12 17 29 13 22 -6 47 9 104 61 14 12
28 20 32 17 5 -3 17 3 28 13 38 35 50 43 64 43 8 0 32 18 55 40 38 38 54 45
93 41 9 -1 19 7 22 19 3 13 13 20 29 20 12 0 33 3 46 6 16 5 22 2 22 -10 0
-20 24 -21 40 -1 7 9 19 14 27 11 15 -6 18 20 3 29 -13 8 -13 25 1 25 6 0 17
-7 25 -15 9 -8 18 -15 22 -15 11 1 44 50 33 50 -5 0 -13 -5 -16 -10 -13 -21
-35 -9 -55 30 -11 23 -18 45 -15 50 10 17 33 11 40 -10 6 -19 17 -25 39 -21 6
1 20 -3 33 -10 19 -10 26 -9 43 6 10 9 26 15 34 12 15 -6 26 12 26 44 0 23 74
61 104 53 26 -6 61 28 61 59 0 25 55 60 62 40 6 -16 33 -5 33 14 0 7 11 26 25
41 l24 26 30 -22 c17 -12 33 -22 37 -22 13 0 94 -41 100 -51 3 -5 21 -9 40 -9
27 0 50 12 102 53 37 29 80 61 97 71 16 11 61 52 100 92 69 71 125 106 213
134 42 13 42 13 42 63 0 48 2 51 75 123 42 41 80 74 85 74 5 0 16 8 26 18 10
9 21 17 25 17 4 0 15 10 26 23 l18 23 48 -20 c27 -12 52 -21 56 -21 12 0 111
91 111 103 0 6 -10 0 -21 -12 -26 -27 -83 -54 -122 -57 -21 -1 -31 4 -37 20
-9 25 5 56 26 56 12 0 15 -6 10 -25 -9 -35 0 -31 48 18 22 23 58 56 79 72 20
16 37 35 37 42 0 6 10 15 21 18 12 4 35 22 51 41 17 19 35 34 42 34 17 1 63
44 70 67 4 11 17 30 31 43 23 21 26 22 42 7 13 -11 23 -13 36 -6 24 14 22 49
-3 49 -27 0 -25 14 5 34 31 20 32 20 31 -6 -1 -18 4 -23 24 -22 14 1 35 5 47
9 18 6 23 3 23 -9 0 -9 3 -16 8 -16 4 0 14 -5 22 -10 13 -9 9 -15 -20 -41
l-35 -31 55 6 c132 14 190 25 265 55 44 17 84 31 89 31 5 0 33 12 62 26 51 25
74 25 74 1 0 -14 -53 -48 -90 -58 -14 -4 -56 -19 -95 -34 -77 -29 -146 -51
-185 -59 -31 -7 -56 -23 -48 -31 3 -3 21 0 39 8 19 7 39 12 46 10 6 -2 14 1
18 6 3 6 21 11 39 11 18 0 41 7 52 15 10 8 27 15 36 15 9 0 24 8 34 17 10 10
29 16 50 15 19 -2 44 4 57 12 21 14 27 13 87 -27 43 -28 66 -50 68 -65 2 -12
7 -22 12 -22 4 0 13 -20 19 -45 9 -35 18 -48 39 -56 15 -6 37 -20 49 -31 17
-15 37 -21 89 -22 66 -2 69 -1 118 40 76 64 106 95 106 110 0 22 158 223 182
233 5 2 20 -7 33 -19 28 -26 38 -22 140 59 148 119 254 176 307 169 18 -3 46
-1 63 4 16 5 36 12 44 14 10 3 11 8 2 18 -6 7 -9 21 -5 30 4 10 0 18 -10 22
-21 8 -21 44 0 44 30 0 84 -53 84 -83 0 -15 -23 -89 -52 -163 l-51 -136 22
-17 21 -16 -20 -59 c-14 -42 -21 -89 -22 -160 -2 -98 0 -103 35 -175 20 -40
48 -85 62 -99 18 -18 23 -31 19 -46 -14 -46 -44 -57 -44 -15 0 20 -10 23 -48
13 -18 -5 -22 -13 -20 -33 2 -15 -2 -25 -8 -24 -18 3 -74 -73 -74 -101 0 -47
-16 -74 -42 -69 -20 3 -29 -7 -71 -86 -33 -63 -64 -105 -101 -138 -70 -63
-182 -192 -190 -220 -4 -12 -26 -37 -49 -55 -23 -18 -55 -44 -72 -59 -179
-163 -239 -209 -272 -209 -16 0 -39 -7 -51 -16 -20 -14 -22 -23 -22 -104 0
-79 2 -91 20 -100 11 -6 20 -16 20 -23 0 -7 13 -25 29 -40 17 -15 33 -38 37
-50 4 -12 20 -38 35 -58 16 -20 29 -41 29 -46 0 -6 9 -18 20 -28 11 -10 20
-24 20 -32 0 -16 5 -16 30 0 17 10 22 9 30 -3 5 -8 15 -15 21 -15 13 0 59 -79
59 -102 0 -10 14 -13 62 -10 59 3 62 5 104 52 23 28 46 47 49 43 4 -4 -5 -41
-20 -84 -20 -56 -25 -82 -18 -97 9 -19 14 -13 47 53 44 88 65 115 79 101 7 -7
7 -19 -1 -36 -6 -13 -9 -31 -6 -39 6 -16 -17 -99 -40 -144 -21 -41 -21 -42 12
-36 15 3 39 1 54 -5 24 -9 26 -13 21 -52 -6 -40 -5 -41 18 -33 34 11 63 11 65
-1 0 -5 4 -18 9 -28 4 -11 3 -23 -4 -30 -6 -6 -11 -17 -11 -23 0 -16 45 -4 84
21 32 21 45 12 27 -18 -13 -20 -13 -21 2 -8 19 15 47 8 47 -12 0 -8 -7 -20
-15 -27 -8 -7 -15 -23 -15 -36 0 -16 -6 -24 -18 -24 -9 0 -23 -9 -30 -20 -16
-26 -7 -25 52 5 27 14 54 25 60 25 16 1 66 47 66 61 0 6 6 9 14 6 8 -3 20 1
26 9 7 8 20 14 29 14 21 0 87 67 77 77 -4 4 -12 0 -17 -10 -16 -28 -31 -20
-27 16 3 30 5 32 43 33 45 0 91 26 100 55 4 10 15 24 26 30 13 7 18 16 14 29
-4 12 0 22 11 28 13 7 14 13 5 29 -8 17 -6 24 10 39 20 18 21 18 34 0 13 -17
15 -16 34 15 20 33 12 54 -12 30 -6 -6 -24 -11 -40 -11 -17 0 -35 -7 -42 -17
-7 -9 -19 -14 -29 -10 -23 9 -20 37 5 37 19 0 20 4 14 38 -4 26 -2 42 7 49 21
18 106 27 122 14 11 -9 15 -6 20 15 4 14 2 31 -3 38 -13 15 -3 115 12 135 8 9
24 11 56 7 l44 -6 -27 25 c-14 13 -26 28 -26 32 0 5 14 21 32 36 31 28 58 30
58 5 0 -7 9 -24 20 -38 l20 -25 0 26 c0 14 -5 30 -11 36 -20 20 -2 99 26 117
20 13 23 22 18 46 -7 36 3 38 52 10 42 -24 59 -18 51 16 -4 14 -2 24 4 24 6 0
20 9 32 20 12 11 32 20 45 20 29 0 31 25 3 40 -29 16 -24 30 10 30 19 0 30 5
30 14 0 8 7 16 15 20 8 3 15 12 15 19 0 16 38 53 46 45 3 -3 0 -25 -6 -48 -6
-23 -9 -44 -7 -46 6 -7 54 58 80 108 22 43 37 66 90 135 15 20 27 43 27 51 0
18 67 102 81 102 6 0 21 -11 34 -24 21 -21 53 -31 122 -39 29 -3 38 -14 24
-30 -20 -25 -3 -47 30 -40 29 6 33 0 30 -39 -3 -27 16 -30 51 -6 68 46 154
118 197 162 28 30 52 46 68 46 26 0 53 21 53 41 0 6 -8 18 -17 25 -15 11 -16
16 -5 34 7 11 10 25 7 30 -3 5 4 14 15 20 11 6 20 17 20 24 0 8 7 17 15 20 9
3 21 19 26 36 7 19 18 30 30 30 10 0 19 5 19 11 0 7 10 9 24 5 29 -7 46 12 24
28 -18 13 -31 73 -18 81 6 3 10 13 10 21 0 21 36 57 49 49 18 -10 13 -46 -5
-43 -20 4 -39 -24 -31 -45 5 -13 16 -7 54 28 34 31 54 43 67 39 11 -4 16 -2
12 4 -8 13 10 25 24 17 8 -5 7 -12 -2 -22 -10 -12 -8 -18 12 -34 14 -10 28
-19 33 -19 4 0 7 -10 7 -21 0 -17 -5 -20 -21 -16 -13 4 -22 0 -25 -11 -3 -9
-10 -24 -15 -32 -5 -8 -15 -30 -23 -48 -8 -17 -20 -32 -27 -32 -7 0 -9 -10 -6
-26 2 -14 0 -39 -7 -55 -10 -28 -8 -32 29 -63 36 -30 38 -36 28 -58 -6 -14
-14 -55 -18 -91 l-7 -67 28 -11 c16 -5 36 -16 44 -23 8 -6 37 -17 63 -24 26
-7 53 -17 60 -22 78 -63 77 -63 101 -50 13 7 32 9 43 6 13 -4 27 2 43 19 20
21 29 23 69 18 66 -8 81 -18 81 -56 0 -48 9 -72 32 -86 17 -10 22 -10 32 5 15
19 40 10 32 -12 -6 -15 24 -74 37 -74 5 0 11 9 14 20 9 32 29 23 58 -26 18
-30 25 -54 21 -69 -4 -15 -1 -25 9 -29 18 -7 45 19 45 45 0 11 10 24 23 30 12
5 33 26 46 45 14 19 34 40 45 46 26 14 48 43 62 83 6 17 19 31 30 33 43 7 48
12 28 27 -18 14 -18 15 11 39 17 14 36 25 43 26 6 0 12 4 12 8 0 5 17 8 37 7
27 0 39 -6 41 -18 2 -9 8 -17 14 -17 6 0 8 11 6 25 -4 17 -1 25 8 25 19 0 18
20 -3 42 -15 17 -15 19 2 38 10 11 29 20 42 20 32 0 61 29 69 68 7 36 -10 44
-31 15 -15 -20 -45 -11 -45 14 0 10 9 26 20 36 11 9 20 24 20 32 0 8 9 20 20
27 24 15 26 28 5 28 -8 0 -15 6 -15 13 0 6 -3 22 -6 33 -4 16 4 33 31 63 21
23 42 41 47 41 5 0 18 -10 28 -23 l18 -22 31 29 c21 20 28 33 21 40 -21 21
-11 38 19 31 28 -6 30 -4 56 64 15 39 37 79 49 89 13 9 42 47 66 84 40 63 44
66 63 53 16 -11 24 -12 34 -3 10 8 17 8 24 1 8 -8 7 -13 0 -17 -17 -11 -14
-76 4 -76 11 0 15 11 15 35 0 41 25 59 45 32 16 -22 26 -10 19 19 -7 28 22 46
37 23 6 -9 9 -10 9 -2 0 6 -5 15 -11 18 -23 15 -4 40 31 41 19 1 45 5 57 9 21
7 23 5 17 -24 -6 -28 -4 -31 20 -31 29 0 33 -11 11 -30 -12 -10 -18 -10 -30 0
-19 16 -32 5 -44 -37 -6 -21 -5 -35 2 -42 8 -8 6 -11 -6 -11 -9 0 -21 -9 -27
-20 -6 -11 -17 -20 -25 -20 -19 0 -19 -26 -1 -33 11 -4 13 -16 9 -41 -5 -35
-5 -36 27 -36 33 0 63 27 85 76 6 13 25 39 43 58 17 20 32 40 32 46 0 6 7 13
15 16 8 4 15 16 15 28 0 32 67 126 90 126 10 0 22 -4 25 -10 11 -18 24 -11 40
23 8 17 19 39 24 47 6 8 17 29 25 45 8 17 20 40 27 52 10 19 9 26 -5 42 -16
17 -16 25 -6 57 7 21 21 39 31 41 11 3 19 12 19 19 0 8 7 14 15 14 8 0 15 -6
15 -14 0 -33 21 -24 41 18 11 25 27 50 34 56 21 18 26 -4 10 -43 -9 -23 -11
-38 -5 -42 15 -9 12 -41 -4 -54 -10 -8 -16 -9 -21 -1 -4 7 -12 7 -26 0 -22
-12 -27 -45 -5 -37 8 3 22 0 32 -7 17 -13 17 -15 1 -39 -9 -15 -17 -35 -17
-45 0 -11 -7 -25 -15 -32 -11 -9 -12 -16 -5 -25 15 -18 1 -71 -27 -101 -16
-17 -26 -41 -28 -68 -5 -57 -23 -143 -35 -166 -13 -24 -13 -40 0 -40 6 0 10 6
10 14 0 17 26 40 34 28 3 -5 -1 -20 -9 -35 -7 -14 -10 -28 -7 -31 3 -3 -5 -30
-17 -59 -57 -129 -59 -137 -41 -137 6 0 10 8 10 18 0 23 29 64 41 57 19 -12
10 -73 -14 -92 -25 -19 -25 -43 -2 -43 23 0 27 -18 11 -48 -12 -24 -13 -36 -3
-70 7 -22 15 -44 19 -48 4 -3 3 -15 -2 -25 -14 -26 -3 -45 36 -64 19 -9 34
-23 34 -32 0 -10 6 -13 16 -9 9 3 18 6 20 6 8 0 4 31 -7 49 -10 14 -7 24 11
49 13 18 30 32 37 32 7 0 13 7 13 15 0 9 7 18 16 22 23 8 83 75 84 91 0 7 11
32 24 55 26 45 48 97 41 97 -2 0 -14 -10 -25 -22 -21 -22 -22 -23 -35 -4 -8
11 -13 29 -10 40 2 12 6 33 9 47 5 21 2 26 -12 25 -27 -2 -27 64 2 152 13 42
27 95 31 117 3 22 27 82 52 133 38 77 44 95 32 103 -8 5 -19 9 -24 9 -17 0
-51 70 -38 78 6 4 11 18 11 32 0 14 3 35 7 47 5 16 2 24 -15 33 -18 10 -26 8
-45 -10 -29 -27 -50 -21 -68 17 -6 15 -19 35 -29 43 -9 8 -19 26 -23 39 -7 23
-5 24 28 18 26 -4 37 -2 41 9 3 8 -1 17 -9 21 -10 3 -12 9 -6 17 5 6 11 22 13
36 2 17 9 25 22 23 32 -2 66 15 66 35 0 10 14 28 31 41 17 13 35 36 41 53 6
16 21 33 34 38 18 7 24 17 24 39 0 34 19 52 51 49 18 -2 26 4 34 29 14 41 43
73 61 66 9 -3 14 2 14 14 0 19 36 43 65 43 9 0 15 10 15 24 0 31 24 56 49 49
20 -5 23 -1 126 155 22 34 47 61 57 62 9 0 20 5 23 11 4 6 13 8 20 5 23 -8 38
19 25 44 -9 17 -8 26 5 46 12 18 13 29 6 38 -15 18 41 91 78 104 19 7 31 19
33 34 2 13 13 27 26 33 12 5 22 15 22 22 0 7 11 13 25 13 20 0 25 5 25 24 0
14 10 32 22 40 l22 16 -22 16 c-25 17 -21 31 14 44 43 17 69 125 65 264 -1 46
-8 57 -24 35 -7 -8 -20 -18 -29 -22 -12 -4 -18 -17 -18 -35 0 -33 -22 -57 -44
-49 -7 3 -18 1 -24 -5 -6 -6 -25 -4 -57 7 -28 9 -60 13 -77 10 -41 -9 -47 17
-16 74 17 33 30 45 44 44 43 -6 63 6 62 37 -1 29 -22 42 -30 18 -3 -7 -12 -9
-23 -4 -14 5 -16 9 -7 18 16 16 15 38 -2 38 -7 0 -16 -9 -19 -21 -4 -16 -12
-20 -34 -17 -24 3 -28 7 -26 32 1 16 11 39 23 51 24 26 49 115 42 152 -4 23
-2 25 18 20 12 -3 28 -3 36 0 19 7 18 32 -1 39 -30 12 -3 54 34 54 14 0 22 8
26 25 3 14 7 36 10 49 3 15 16 28 35 34 17 7 31 19 31 29 7 93 27 110 49 42
11 -32 11 -47 2 -73 -16 -44 -15 -66 3 -66 11 0 15 12 15 49 0 83 10 112 41
123 22 7 29 16 29 35 0 22 4 25 25 21 16 -4 29 0 34 9 4 9 18 13 32 11 20 -2
25 -10 30 -48 3 -25 11 -62 19 -82 l14 -38 23 22 c20 19 23 19 29 4 4 -9 4
-33 1 -52 -5 -31 -3 -36 19 -44 35 -14 44 -12 44 5 0 15 60 85 73 85 3 0 3 -9
0 -20 -4 -16 0 -19 23 -17 21 1 31 -4 39 -20 5 -13 15 -23 21 -23 24 0 38 -29
25 -56 -7 -17 -8 -31 -1 -42 9 -16 9 -15 10 1 0 11 6 33 14 50 24 56 39 98 35
100 -2 2 -17 13 -33 25 -16 12 -39 22 -53 22 -13 0 -26 7 -29 15 -4 8 -12 15
-18 15 -7 0 -21 6 -32 14 -15 11 -16 17 -7 27 9 9 24 6 67 -12 44 -18 59 -20
68 -11 7 7 20 12 30 12 31 0 33 28 4 51 -28 22 -32 39 -15 56 14 14 62 -7 77
-34 5 -9 16 -14 25 -10 12 4 14 20 11 76 -2 41 0 73 6 76 6 4 8 21 4 40 -5 29
-2 38 22 60 l29 25 -27 23 c-16 12 -28 29 -28 37 -1 11 -3 11 -11 -2 -5 -10
-14 -18 -18 -18 -5 0 -11 8 -15 18 -3 9 -9 22 -12 29 -8 17 51 45 80 37 13 -3
34 0 47 6 20 11 20 13 6 22 -10 5 -17 20 -17 33 0 19 -12 29 -65 54 -36 17
-72 31 -81 31 -9 0 -14 6 -11 13 2 6 18 11 36 10 28 -1 31 1 25 20 -3 12 -11
28 -17 35 -16 20 -78 4 -112 -29 -33 -31 -59 -37 -71 -17 -13 21 -9 70 7 82
25 17 36 48 30 80 -6 28 -8 29 -66 31 -39 1 -69 -4 -85 -14 -14 -8 -40 -14
-57 -12 -24 2 -33 -2 -33 -12 0 -8 -7 -20 -15 -27 -12 -10 -20 -9 -40 4 -13 9
-27 16 -31 16 -4 0 -4 -25 0 -55 5 -41 2 -63 -10 -86 l-16 -31 -23 22 c-13 12
-29 19 -35 15 -18 -11 -30 14 -30 62 0 33 -5 46 -27 62 -14 12 -28 19 -31 17
-2 -3 3 -26 12 -52 28 -83 17 -144 -21 -112 -21 17 -102 12 -124 -8 -16 -14
-20 -14 -48 7 -17 13 -31 25 -32 28 -2 11 -10 95 -12 127 -4 55 -45 82 -76 52
-10 -11 -14 -10 -22 5 -8 14 -24 17 -84 17 -41 0 -77 -4 -80 -10 -3 -5 -22
-10 -42 -10 -20 0 -65 -5 -101 -12 -51 -9 -67 -9 -70 0 -2 7 -14 12 -27 12
-34 0 -38 14 -10 40 13 12 29 35 35 51 7 16 16 29 21 29 5 0 9 11 9 23 0 13 9
32 20 42 13 12 18 25 14 41 -5 19 -1 24 21 30 17 4 24 11 21 20 -3 8 1 14 9
14 9 0 15 10 15 25 0 14 15 42 33 62 47 55 77 100 77 116 0 8 6 20 14 27 8 6
13 17 10 24 -3 7 20 36 50 64 45 43 61 52 91 52 23 0 38 5 42 15 3 9 22 24 42
35 45 23 65 45 66 74 0 14 9 24 30 31 17 5 53 26 80 46 28 20 62 42 76 50 65
34 158 91 179 109 13 11 28 20 35 20 18 0 104 78 120 111 20 38 19 61 -2 57
-34 -6 -27 39 11 78 37 38 44 54 26 54 -6 0 -20 -15 -31 -34 -34 -58 -65 -56
-115 9 -14 19 -33 35 -41 35 -11 0 -13 7 -8 29 4 17 1 38 -6 49 -15 24 0 48
38 63 13 5 28 21 33 36 17 46 27 58 49 56 15 -2 24 5 31 22 5 14 14 25 20 25
6 0 8 10 4 24 -5 20 3 33 42 70 26 25 54 46 61 46 7 0 13 11 13 24 0 13 7 29
15 36 8 7 15 20 15 29 0 10 13 21 32 26 42 13 46 30 9 49 -39 20 -45 43 -26
97 21 59 12 117 -20 125 -17 4 -24 15 -29 42 -5 33 -1 41 38 82 24 25 47 55
51 68 3 12 16 28 28 35 56 31 106 74 111 95 4 12 30 51 60 85 85 100 92 121
46 131 -26 5 -30 10 -30 36 0 18 -13 50 -30 75 -16 24 -30 51 -30 60 0 24 -19
55 -33 55 -7 0 -22 29 -32 65 -17 54 -25 67 -50 77 -40 17 -141 14 -186 -5
-44 -18 -105 -82 -120 -124 -6 -18 -15 -33 -20 -33 -5 0 -9 -7 -9 -15 0 -24
-29 -29 -51 -9 -11 10 -28 19 -37 19 -49 4 -52 6 -52 31 0 28 1 28 -98 -8 -32
-12 -59 -30 -70 -46 -20 -33 -32 -42 -54 -42 -13 0 -18 8 -18 25 0 21 -5 25
-29 25 -27 0 -29 3 -26 33 1 17 9 45 16 61 10 20 10 31 3 33 -6 2 -19 10 -29
17 -14 10 -15 17 -6 34 17 32 13 59 -9 65 -11 3 -20 9 -20 14 0 5 27 38 61 73
33 35 66 77 73 94 7 18 27 44 43 60 20 19 29 35 26 50 -4 17 3 25 31 39 35 16
45 31 27 41 -5 3 -11 15 -14 26 -4 17 -1 19 19 16 13 -3 28 -7 34 -11 5 -3 10
3 10 14 0 12 7 21 15 21 9 0 18 7 21 15 8 21 60 75 72 75 15 0 43 48 32 55
-18 11 -10 25 24 39 25 11 42 28 60 65 15 29 37 55 53 63 15 7 38 32 52 54 14
23 38 60 54 82 15 23 27 49 27 57 0 9 8 18 18 22 24 8 61 54 62 76 0 9 5 17
10 17 6 0 10 7 10 16 0 9 11 25 25 36 14 11 42 53 61 93 35 72 35 74 18 106
-12 24 -15 47 -11 88 5 49 2 63 -29 125 -18 38 -34 79 -34 91 0 11 -16 37 -36
58 -32 32 -42 37 -83 37 -36 -1 -53 -7 -80 -30z m-85 -479 c-9 -10 -16 -22
-15 -27 4 -21 -2 -34 -15 -34 -8 0 -17 4 -20 8 -8 13 35 72 52 72 13 0 13 -2
-2 -19z m-1521 -61 c-4 -12 1 -19 15 -23 34 -9 23 -41 -32 -88 -28 -24 -66
-59 -84 -78 -21 -21 -39 -31 -48 -28 -31 12 -10 57 26 57 9 0 25 12 35 26 10
14 28 38 41 54 25 32 29 60 8 60 -27 0 -30 23 -6 42 17 14 26 16 37 7 7 -7 11
-20 8 -29z m1710 -89 c0 -16 -47 -80 -58 -81 -5 0 -15 -7 -23 -15 -9 -8 -21
-15 -27 -15 -7 1 -5 6 4 13 9 7 19 22 23 35 17 52 81 102 81 63z m-1725 -126
c0 -8 -4 -15 -9 -15 -13 0 -22 16 -14 24 11 11 23 6 23 -9z m1600 -38 c0 -8
-9 -22 -20 -32 -18 -16 -20 -16 -26 -1 -7 19 12 46 32 46 8 0 14 -6 14 -13z
m-579 -60 c-6 -15 -15 -27 -21 -27 -14 0 -13 12 7 51 20 39 30 20 14 -24z
m367 30 c4 -21 -25 -34 -40 -19 -8 8 -8 16 2 27 16 19 34 15 38 -8z m-60 -59
c-6 -16 -36 -34 -44 -25 -9 9 15 37 33 37 8 0 13 -5 11 -12z m212 -1 c0 -17
-20 -37 -37 -37 -16 0 -17 22 -1 38 16 16 38 15 38 -1z m-1430 -12 c0 -8 -7
-15 -15 -15 -26 0 -18 20 13 29 1 1 2 -6 2 -14z m1140 -10 c0 -9 -7 -18 -16
-22 -18 -7 -39 11 -30 26 11 17 46 13 46 -4z m-165 -42 c-9 -48 -12 -53 -30
-46 -29 10 -8 83 24 83 10 0 12 -9 6 -37z m-5131 17 c25 -9 36 -43 18 -53 -16
-10 -62 6 -67 24 -12 36 5 46 49 29z m5311 -21 c0 -7 -8 -15 -17 -17 -18 -3
-25 18 -11 32 10 10 28 1 28 -15z m-5205 -60 c0 -5 -7 -9 -15 -9 -15 0 -20 12
-9 23 8 8 24 -1 24 -14z m1928 -47 c3 -16 -2 -22 -17 -22 -26 0 -36 17 -20 36
16 19 33 13 37 -14z m-1213 -13 c0 -7 -8 -15 -17 -17 -18 -3 -25 18 -11 32 10
10 28 1 28 -15z m-55 -43 c-13 -13 -35 7 -25 24 5 8 11 8 21 -1 10 -8 12 -15
4 -23z m4340 -27 c-7 -11 -14 -19 -16 -16 -7 7 7 37 17 37 6 0 5 -9 -1 -21z
m-3084 -44 c-11 -9 -20 -31 -23 -60 -3 -25 -10 -48 -14 -51 -5 -3 -9 -18 -9
-34 0 -16 -4 -31 -10 -35 -5 -3 -7 -11 -4 -18 2 -7 -3 -21 -11 -32 -16 -19
-16 -19 -10 5 l6 25 -20 -24 c-12 -13 -21 -30 -21 -39 0 -20 -29 -52 -47 -52
-18 0 -17 25 2 40 8 7 15 23 15 36 0 13 13 38 30 57 20 23 27 40 23 55 -5 23
19 70 44 85 7 4 13 14 13 20 0 7 7 23 16 36 12 17 19 20 28 11 8 -8 6 -15 -8
-25z m-1268 -1 c4 -26 -51 -67 -79 -59 -31 10 -22 59 11 63 14 2 29 8 35 13
14 14 30 5 33 -17z m4312 -69 c-17 -20 -23 -19 -36 9 -16 35 3 53 29 25 15
-16 16 -23 7 -34z m-2809 7 c4 -18 1 -51 -6 -75 -11 -36 -16 -42 -36 -39 -13
2 -30 10 -38 17 -12 12 -12 16 0 31 7 9 15 32 16 52 4 60 52 71 64 14z m-1591
-36 c0 -8 -14 -25 -31 -37 l-31 -22 7 24 c4 13 12 30 17 37 14 16 38 15 38 -2z
m310 -41 c-7 -8 -10 -25 -6 -40 5 -18 2 -25 -8 -25 -37 0 -45 64 -8 73 31 8
35 7 22 -8z m1178 -13 c2 -12 7 -22 12 -22 4 0 10 -9 13 -20 5 -20 -8 -29 -15
-10 -6 19 -98 -79 -98 -104 0 -33 -23 -51 -40 -31 -11 13 -10 21 8 44 13 18
19 37 15 50 -4 15 3 29 24 48 16 16 35 38 42 51 15 27 35 24 39 -6z m162 -26
c0 -20 -19 -31 -32 -18 -6 6 -7 15 -4 21 10 16 36 13 36 -3z m50 -6 c0 -11 -4
-20 -10 -20 -5 0 -10 9 -10 20 0 11 5 20 10 20 6 0 10 -9 10 -20z m-608 -15
c9 -20 9 -28 -1 -38 -15 -15 -31 6 -31 41 0 30 18 28 32 -3z m-842 0 c15 -18
3 -38 -17 -31 -9 4 -21 2 -27 -3 -18 -14 -61 -8 -61 9 0 10 8 14 23 13 13 -2
25 4 28 12 8 19 38 19 54 0z m4244 -23 c2 -4 1 -14 -4 -22 -7 -11 -12 -12 -21
-3 -6 6 -8 16 -5 22 8 13 23 14 30 3z m-4754 -11 c0 -16 -28 -20 -40 -5 -10
12 -8 14 14 14 14 0 26 -4 26 -9z m1430 -13 c-1 -21 -28 -51 -39 -43 -14 8
-14 28 1 43 16 16 38 15 38 0z m-1650 -9 c0 -26 -144 -147 -155 -129 -10 16
14 59 42 77 15 9 41 27 56 40 31 25 57 30 57 12z m1533 5 c11 -11 -5 -34 -24
-34 -22 0 -24 11 -7 28 13 13 22 15 31 6z m435 -18 c11 -25 7 -36 -15 -36 -8
0 -13 12 -13 30 0 36 13 39 28 6z m-1383 -6 c13 -20 -6 -68 -28 -74 -12 -3
-39 -21 -60 -41 -21 -19 -42 -35 -48 -35 -17 0 -9 25 12 38 19 12 21 20 15 63
-6 42 -4 49 10 49 10 0 25 -7 35 -16 16 -14 18 -14 29 5 12 23 25 27 35 11z
m1197 -5 c0 -5 -5 -11 -11 -13 -6 -2 -11 4 -11 13 0 9 5 15 11 13 6 -2 11 -8
11 -13z m3171 -1 c3 -4 -7 -23 -23 -43 -22 -27 -37 -36 -57 -35 -16 0 -28 6
-27 12 3 32 5 34 34 29 25 -5 30 -3 30 12 0 23 29 39 43 25z m-4693 -29 c0
-15 -27 -28 -42 -19 -5 3 -2 14 8 25 18 20 34 17 34 -6z m1550 -7 c0 -17 -20
-47 -20 -31 0 6 -3 18 -6 27 -4 11 -1 16 10 16 9 0 16 -6 16 -12z m-430 -8 c0
-5 -7 -10 -15 -10 -8 0 -15 5 -15 10 0 6 7 10 15 10 8 0 15 -4 15 -10z m368
-37 c-13 -16 -38 -17 -38 -1 0 6 8 20 17 30 17 19 18 19 24 1 4 -10 2 -24 -3
-30z m-78 -2 c0 -21 -26 -36 -36 -20 -9 15 3 39 21 39 8 0 15 -9 15 -19z
m-1260 -26 c0 -8 -4 -15 -9 -15 -13 0 -22 16 -14 24 11 11 23 6 23 -9z m-105
-45 c10 -11 22 -17 26 -14 5 3 9 1 9 -4 0 -6 -7 -13 -17 -16 -18 -7 -66 31
-57 45 8 14 19 11 39 -11z m4428 -11 c-17 -17 -37 -1 -22 17 8 10 15 12 23 4
7 -7 7 -13 -1 -21z m-3326 -35 c7 -18 -6 -45 -24 -51 -6 -2 -18 3 -27 12 -12
12 -13 21 -6 36 13 23 48 25 57 3z m-1849 -12 c2 -7 -6 -12 -17 -12 -21 0 -27
11 -14 24 9 9 26 2 31 -12z m842 -7 c0 -8 -4 -15 -10 -15 -5 0 -10 7 -10 15 0
8 5 15 10 15 6 0 10 -7 10 -15z m-80 -11 c11 -12 10 -18 -4 -32 -16 -16 -18
-16 -32 2 -8 11 -14 26 -14 33 0 18 35 16 50 -3z m-52 -26 c7 -6 12 -21 10
-32 -2 -17 -11 -22 -45 -24 -42 -3 -60 12 -29 24 11 4 13 12 5 31 -9 24 -8 25
18 18 15 -3 34 -11 41 -17z m-1018 -8 c0 -5 -2 -10 -4 -10 -3 0 -8 5 -11 10
-3 6 -1 10 4 10 6 0 11 -4 11 -10z m4310 -25 c0 -8 -7 -15 -15 -15 -16 0 -20
12 -8 23 11 12 23 8 23 -8z m-4170 -11 c0 -9 8 -23 18 -30 10 -9 13 -17 7 -21
-5 -5 -15 -17 -21 -28 -6 -11 -21 -21 -33 -23 -11 -2 -21 -8 -21 -13 0 -5 -7
-9 -15 -9 -18 0 -20 30 -2 30 21 1 49 49 43 74 -6 23 0 36 16 36 4 0 8 -7 8
-16z m-195 -51 c-3 -21 -11 -42 -15 -47 -11 -11 -40 10 -40 28 0 20 30 56 47
56 12 0 14 -7 8 -37z m339 11 c30 -12 17 -40 -26 -59 -24 -10 -47 -21 -52 -23
-5 -3 -6 1 -2 7 4 6 0 14 -8 17 -29 11 -17 32 27 47 23 9 43 16 44 16 1 1 8
-2 17 -5z m3848 -99 c0 -5 -5 -11 -11 -13 -6 -2 -11 4 -11 13 0 9 5 15 11 13
6 -2 11 -8 11 -13z m-217 -215 c-5 -8 -11 -8 -17 -2 -6 6 -7 16 -3 22 5 8 11
8 17 2 6 -6 7 -16 3 -22z m1803 13 c-4 -22 -22 -20 -26 1 -2 10 3 16 13 16 10
0 15 -7 13 -17z m-6336 -13 c0 -11 1 -26 2 -32 1 -7 -8 -13 -19 -13 -11 0 -27
-9 -36 -19 -17 -21 -39 -15 -39 10 0 22 51 74 72 74 11 0 19 -8 20 -20z m4426
-8 c3 -9 -2 -13 -14 -10 -9 1 -19 9 -22 16 -3 9 2 13 14 10 9 -1 19 -9 22 -16z
m-4562 -37 c-3 -8 -10 -15 -16 -15 -14 0 -12 37 3 43 15 5 21 -8 13 -28z
m6414 -43 c0 -18 -42 -54 -52 -44 -13 13 -2 31 26 42 27 11 26 11 26 2z m-162
-59 c-2 -17 -10 -29 -21 -31 -25 -5 -33 26 -11 43 28 21 36 18 32 -12z m115
-7 c3 -8 -1 -20 -9 -26 -8 -7 -14 -18 -14 -25 0 -7 -15 -24 -34 -39 -19 -14
-36 -36 -38 -48 -2 -12 -9 -23 -15 -26 -18 -5 -29 28 -13 38 7 4 10 12 6 18
-8 14 43 90 66 98 10 3 18 10 18 15 0 15 27 10 33 -5z m-1893 -41 c0 -8 -4
-15 -9 -15 -13 0 -22 16 -14 24 11 11 23 6 23 -9z m-4510 -84 c-1 -14 -50 -61
-63 -61 -8 0 -17 -9 -20 -19 -6 -25 -46 -51 -91 -58 -33 -5 -36 -4 -36 18 0
16 11 32 33 47 18 12 46 35 60 50 22 23 36 29 72 29 25 0 45 -3 45 -6z m-146
-170 c8 -13 -11 -61 -24 -61 -5 0 -10 7 -10 15 0 8 5 15 11 15 6 0 8 9 4 20
-6 20 9 28 19 11z m-184 -126 c0 -8 -4 -15 -10 -15 -5 0 -10 7 -10 15 0 8 5
15 10 15 6 0 10 -7 10 -15z m-990 -1056 c0 -5 -7 -9 -15 -9 -15 0 -20 12 -9
23 8 8 24 -1 24 -14z m-317 -479 c-10 -38 -41 -63 -62 -51 -15 10 -3 40 32 79
26 29 41 15 30 -28z m-295 -271 c-2 -6 -8 -10 -13 -10 -5 0 -11 4 -13 10 -2 6
4 11 13 11 9 0 15 -5 13 -11z m-169 -109 c14 -32 8 -66 -9 -55 -5 3 -10 17
-10 31 0 13 -4 24 -10 24 -5 0 -10 7 -10 15 0 26 25 16 39 -15z m-31 -131 c-2
-6 -8 -10 -13 -10 -5 0 -11 4 -13 10 -2 6 4 11 13 11 9 0 15 -5 13 -11z m-198
-164 c0 -8 -4 -15 -10 -15 -5 0 -10 7 -10 15 0 8 5 15 10 15 6 0 10 -7 10 -15z
m9541 -556 c13 -25 -1 -45 -26 -36 -22 9 -31 37 -14 48 21 13 27 11 40 -12z
m-481 -59 c0 -11 -7 -20 -15 -20 -15 0 -21 21 -8 33 12 13 23 7 23 -13z m-152
-98 c2 -7 -3 -12 -12 -12 -9 0 -16 7 -16 16 0 17 22 14 28 -4z m-336 -188 c7
-15 8 -28 2 -32 -12 -9 -32 -41 -47 -74 -7 -19 -19 -28 -34 -28 -44 0 -40 14
27 97 6 7 10 21 10 31 0 39 25 43 42 6z m88 -114 c0 -5 -7 -10 -15 -10 -8 0
-15 5 -15 10 0 6 7 10 15 10 8 0 15 -4 15 -10z m-52 -123 c2 -12 -3 -17 -17
-17 -12 0 -21 6 -21 13 0 31 32 34 38 4z m-375 -223 c9 -10 -4 -34 -18 -34
-17 0 -28 17 -20 30 7 11 28 13 38 4z m-6953 -238 c0 -45 -35 -86 -111 -131
-69 -40 -79 -42 -79 -16 0 13 15 25 50 39 42 17 50 25 50 46 0 15 4 26 9 26 5
0 19 16 31 35 28 46 50 46 50 1z m6090 -176 c0 -12 -28 -25 -36 -17 -9 9 6 27
22 27 8 0 14 -5 14 -10z m1404 -9 c17 -19 17 -20 -16 -37 -18 -9 -37 -23 -41
-30 -11 -20 -27 -17 -27 4 0 10 11 28 25 40 14 12 25 26 25 32 0 16 15 12 34
-9z m-9044 -62 c0 -12 -7 -19 -19 -19 -26 0 -36 17 -21 35 15 18 40 8 40 -16z
m7620 -10 c0 -19 -5 -29 -15 -29 -15 0 -22 50 -9 63 12 12 24 -4 24 -34z m-62
-98 c3 -8 -1 -12 -9 -9 -7 2 -15 10 -17 17 -3 8 1 12 9 9 7 -2 15 -10 17 -17z
m-6168 -26 c9 -26 9 -48 1 -86 -6 -27 -11 -67 -11 -88 0 -40 -35 -91 -63 -91
-8 0 -20 -14 -27 -31 -11 -27 -17 -30 -41 -25 -23 4 -28 1 -31 -16 -2 -15 -13
-24 -37 -31 -18 -4 -44 -15 -57 -24 -23 -15 -54 -12 -54 4 0 4 16 25 35 46 31
34 55 89 55 128 0 9 9 28 20 42 11 14 20 29 20 34 0 5 12 20 26 34 14 13 32
39 39 57 9 20 21 32 33 32 10 0 29 11 42 25 31 33 36 32 50 -10z m7460 -32 c0
-5 -5 -15 -10 -23 -7 -11 -12 -12 -21 -3 -6 6 -8 16 -5 22 8 12 36 15 36 4z
m10 -52 c0 -5 -9 -11 -20 -14 -22 -6 -28 8 -7 16 19 8 27 8 27 -2z m-60 -21
c0 -5 -7 -10 -15 -10 -8 0 -15 5 -15 10 0 6 7 10 15 10 8 0 15 -4 15 -10z
m-10355 -42 c-13 -43 -75 -78 -75 -43 0 19 47 65 67 65 10 0 12 -7 8 -22z
m9615 17 c0 -9 -65 -110 -82 -127 -10 -10 -18 -25 -18 -33 0 -8 -5 -15 -11
-15 -5 0 -15 -13 -20 -30 -6 -16 -15 -30 -20 -30 -5 0 -18 -20 -29 -45 -27
-63 -97 -135 -132 -135 -22 0 -28 5 -28 23 0 12 7 31 15 41 8 11 15 28 15 39
0 10 7 33 16 50 9 18 20 39 24 47 4 8 14 15 23 15 16 0 55 39 105 103 14 18
31 31 38 28 7 -3 16 4 19 15 8 26 85 74 85 54z m-9060 -120 c0 -8 -7 -15 -16
-15 -14 0 -14 3 -4 15 7 8 14 15 16 15 2 0 4 -7 4 -15z m9710 -16 c0 -10 -7
-19 -15 -19 -15 0 -21 31 -9 43 11 10 24 -3 24 -24z m-7435 -78 c7 -12 -12
-24 -25 -16 -11 7 -4 25 10 25 5 0 11 -4 15 -9z m-205 -81 c0 -22 -22 -36 -40
-25 -8 5 -6 13 6 26 22 25 34 24 34 -1z m-60 -75 c0 -8 -7 -15 -15 -15 -8 0
-15 7 -15 15 0 8 7 15 15 15 8 0 15 -7 15 -15z m-2508 -80 c0 -5 -5 -11 -11
-13 -6 -2 -11 4 -11 13 0 9 5 15 11 13 6 -2 11 -8 11 -13z m9165 -1 c8 -21
-30 -59 -51 -51 -19 7 -21 38 -4 55 17 17 48 15 55 -4z m-6697 -9 c0 -8 -4
-15 -9 -15 -13 0 -22 16 -14 24 11 11 23 6 23 -9z m-2425 -35 c11 -19 -5 -48
-30 -52 -34 -7 -37 0 -13 33 23 31 33 35 43 19z m2365 -20 c0 -11 -6 -20 -14
-20 -18 0 -29 16 -21 30 11 18 35 11 35 -10z m-142 -178 c3 -19 -1 -23 -15
-20 -10 2 -19 14 -21 26 -3 19 1 23 15 20 10 -2 19 -14 21 -26z m1142 -46 c0
-21 -40 -42 -92 -49 -52 -7 -59 0 -31 33 20 23 39 26 46 8 3 -10 11 -9 33 4
37 21 44 21 44 4z m-1343 -116 c20 0 12 -20 -18 -42 -20 -15 -30 -17 -52 -9
-15 6 -27 17 -27 26 0 18 21 20 39 3 10 -11 11 -8 6 14 -5 19 -2 29 12 36 15
9 19 7 21 -9 2 -10 10 -19 19 -19z m-159 -62 c-7 -19 -38 -22 -38 -4 0 10 9
16 21 16 12 0 19 -5 17 -12z m1510 -55 c-2 -12 -14 -19 -36 -21 -35 -4 -43 11
-14 27 28 17 54 13 50 -6z m6285 -38 c-3 -20 -33 -31 -43 -15 -5 8 -6 18 -3
23 7 11 48 4 46 -8z m-75 -102 c2 -7 -6 -21 -17 -32 -12 -12 -21 -27 -21 -35
0 -7 -7 -19 -16 -27 -14 -11 -15 -9 -9 27 12 66 49 106 63 67z m-2888 -43 c0
-20 -5 -30 -15 -30 -21 0 -30 27 -15 45 19 23 30 18 30 -15z m99 -14 c6 -7 8
-21 5 -30 -5 -13 -14 -16 -38 -10 -17 3 -35 10 -40 14 -12 12 3 32 20 26 7 -3
16 -1 19 4 9 14 21 12 34 -4z m2448 -63 c4 -9 1 -19 -5 -21 -7 -2 -12 -10 -12
-18 0 -19 -26 -18 -34 2 -8 20 11 54 30 54 8 0 18 -8 21 -17z m423 -4 c0 -5
-7 -9 -15 -9 -15 0 -20 12 -9 23 8 8 24 -1 24 -14z m-856 -67 c-4 -15 -8 -36
-8 -46 -1 -11 -7 -21 -13 -23 -21 -7 -17 83 5 105 21 21 28 5 16 -36z m-104
-78 c0 -8 -7 -14 -15 -14 -15 0 -21 21 -9 33 10 9 24 -2 24 -19z m722 -59 c0
-5 -5 -11 -11 -13 -6 -2 -11 4 -11 13 0 9 5 15 11 13 6 -2 11 -8 11 -13z m38
-107 c0 -7 -9 -24 -20 -38 -15 -19 -22 -22 -31 -13 -9 9 -8 18 5 37 17 27 46
35 46 14z m-8122 -60 c-6 -18 -28 -21 -28 -4 0 9 7 16 16 16 9 0 14 -5 12 -12z
m-10 -68 c17 -27 8 -40 -29 -40 -33 0 -36 -5 -14 -27 20 -19 15 -47 -8 -51
-11 -2 -17 3 -17 16 0 11 -7 25 -15 32 -18 15 -19 29 -5 64 12 34 68 37 88 6z
m-120 -82 c-2 -25 -8 -34 -26 -36 -13 -2 -24 3 -28 12 -8 22 14 56 37 56 17 0
20 -5 17 -32z m11 -62 c9 -11 10 -20 1 -35 -12 -24 -47 -27 -75 -8 -21 16 -13
37 15 37 10 0 22 5 25 10 9 14 21 12 34 -4z m-439 -70 c0 -17 -45 -55 -79 -67
-19 -7 -30 -17 -29 -26 4 -23 -28 -40 -49 -27 -24 15 -29 44 -8 44 8 0 19 10
24 23 5 12 32 34 61 49 50 26 80 28 80 4z m245 -37 c0 -7 -8 -15 -17 -17 -18
-3 -25 18 -11 32 10 10 28 1 28 -15z m-61 -24 c-4 -8 -10 -15 -15 -15 -4 0 -6
7 -3 15 4 8 10 15 15 15 4 0 6 -7 3 -15z m354 -33 c15 -12 21 -24 16 -35 -7
-18 -39 -23 -49 -7 -3 6 -15 5 -30 -2 -38 -17 -43 -1 -9 31 35 35 42 36 72 13z
m-508 -26 c-13 -13 -35 7 -25 24 5 8 11 8 21 -1 10 -8 12 -15 4 -23z m380 15
c0 -10 -9 -21 -20 -24 -23 -6 -24 -3 -8 23 16 25 28 26 28 1z m-596 -17 c7
-19 -1 -34 -19 -34 -18 0 -28 17 -21 35 7 20 32 19 40 -1z m376 8 c0 -15 -24
-32 -44 -32 -18 0 -19 1 -1 20 18 20 45 27 45 12z m-90 -16 c0 -20 -19 -31
-32 -18 -6 6 -7 15 -4 21 10 16 36 13 36 -3z m-183 -63 c-3 -15 1 -23 9 -23 8
0 14 4 14 8 0 13 48 33 55 22 3 -4 -6 -17 -19 -28 -18 -13 -25 -28 -23 -47 1
-15 -4 -30 -10 -32 -7 -3 -13 2 -13 11 0 9 -8 16 -19 16 -25 0 -36 17 -21 35
9 10 7 15 -9 20 -25 8 -26 23 -4 54 16 23 17 23 30 5 8 -10 12 -29 10 -41z
m-167 13 c-13 -13 -35 7 -25 24 5 8 11 8 21 -1 10 -8 12 -15 4 -23z m5427 8
c-9 -9 -28 6 -21 18 4 6 10 6 17 -1 6 -6 8 -13 4 -17z m-4749 -20 c4 -29 -30
-69 -52 -61 -32 13 -2 91 33 85 9 -2 17 -13 19 -24z m-365 -11 c6 -34 1 -43
-24 -43 -27 0 -35 27 -14 50 24 27 32 25 38 -7z m-383 -18 c0 -8 -7 -15 -15
-15 -8 0 -15 7 -15 15 0 8 7 15 15 15 8 0 15 -7 15 -15z m5430 -43 c0 -21 -18
-42 -37 -42 -16 0 -17 32 -1 48 18 18 38 15 38 -6z m-5386 -11 c3 -5 -1 -14
-8 -20 -16 -13 -32 2 -21 19 8 12 22 13 29 1z m186 -31 c0 -5 -7 -10 -15 -10
-8 0 -15 5 -15 10 0 6 7 10 15 10 8 0 15 -4 15 -10z m-30 -30 c9 -16 8 -22 -5
-26 -21 -8 -39 10 -32 30 9 22 24 20 37 -4z m-240 -7 c0 -12 -60 -63 -74 -63
-24 0 -19 28 7 41 12 7 25 18 30 25 7 12 37 9 37 -3z m360 -8 c0 -8 -6 -18
-13 -22 -16 -9 -31 -43 -28 -60 1 -7 -5 -13 -14 -13 -8 0 -15 6 -15 14 0 8 -9
18 -20 21 -30 9 -25 20 27 53 47 31 63 33 63 7z m220 15 c13 -8 13 -10 -2 -10
-9 0 -20 5 -23 10 -8 13 5 13 25 0z m-460 -35 c0 -8 -4 -15 -9 -15 -13 0 -22
16 -14 24 11 11 23 6 23 -9z m5284 -12 c8 -28 -5 -43 -37 -43 -26 0 -32 28
-12 50 25 27 42 25 49 -7z m86 4 c0 -8 -11 -24 -24 -36 -14 -13 -23 -28 -20
-35 2 -6 -2 -20 -10 -31 -12 -16 -17 -18 -28 -7 -10 10 -10 17 0 32 6 11 12
29 12 40 0 11 7 20 15 20 9 0 18 7 21 15 7 19 34 20 34 2z m-5603 -37 c3 -17
9 -33 14 -36 14 -8 -20 -51 -57 -73 -20 -12 -37 -21 -40 -21 -14 0 1 24 34 56
20 20 29 31 20 24 -21 -15 -38 -5 -38 21 0 59 56 83 67 29z m177 10 c16 -6 26
-17 26 -30 0 -12 10 -25 25 -32 31 -14 33 -50 6 -79 -24 -26 -38 -19 -39 20
-1 44 -31 81 -59 74 -18 -4 -23 -1 -23 15 0 12 8 26 18 31 21 13 16 13 46 1z
m-114 -35 c0 -8 7 -15 16 -15 14 0 14 -2 0 -22 -9 -12 -13 -31 -10 -45 4 -13
2 -23 -4 -23 -17 0 -24 18 -28 71 -3 38 0 49 11 49 8 0 15 -7 15 -15z m-151
-32 c8 -18 9 -29 1 -37 -13 -13 -26 1 -35 37 -9 36 17 37 34 0z m5551 8 c7
-15 5 -24 -8 -41 -16 -20 -19 -20 -31 -6 -16 19 -6 66 14 66 8 0 19 -9 25 -19z
m-5144 -22 c10 -17 -13 -36 -27 -22 -12 12 -4 33 11 33 5 0 12 -5 16 -11z
m-556 -9 c0 -5 11 -10 25 -10 27 0 32 -9 14 -27 -8 -8 -7 -19 4 -42 15 -30 15
-31 -7 -31 -35 0 -68 29 -62 54 3 12 1 28 -4 36 -5 8 -6 18 -4 22 7 11 34 10
34 -2z m660 -17 c0 -9 8 -22 18 -29 13 -10 14 -15 5 -25 -9 -9 -17 -5 -37 16
-29 32 -31 36 -14 53 14 14 28 6 28 -15z m-136 -47 c-5 -14 -47 -46 -59 -46
-11 0 -4 24 12 42 20 22 55 25 47 4z m-285 -12 c6 -6 -42 -43 -57 -44 -19 0
-26 28 -11 46 11 14 54 13 68 -2z m161 -2 c0 -5 -11 -19 -25 -32 -31 -29 -54
-16 -36 19 11 20 61 31 61 13z m4330 -27 c0 -8 -4 -15 -9 -15 -13 0 -22 16
-14 24 11 11 23 6 23 -9z m167 -16 c13 -13 -21 -87 -43 -96 -8 -3 -14 -16 -14
-28 0 -27 -17 -36 -43 -23 -31 16 -49 2 -42 -31 4 -17 2 -32 -5 -36 -8 -5 -8
-11 1 -21 14 -18 5 -44 -17 -44 -8 0 -23 8 -32 18 -10 10 -13 13 -9 6 8 -12
-27 -44 -47 -44 -6 0 -20 -12 -32 -27 -24 -30 -54 -26 -54 7 0 26 -6 25 -47
-6 -33 -25 -34 -28 -28 -73 6 -41 3 -49 -20 -71 -22 -21 -28 -22 -36 -10 -8
12 -13 10 -30 -12 -11 -16 -29 -28 -39 -28 -27 0 -32 27 -8 44 12 9 18 21 15
30 -7 18 -23 21 -32 6 -3 -5 -13 -10 -21 -10 -17 0 -20 65 -3 76 6 3 9 15 6
25 -3 13 0 19 10 19 9 0 32 14 52 32 l36 32 3 -24 c3 -15 -3 -30 -15 -40 -25
-20 -38 -90 -17 -90 8 0 14 8 14 18 0 10 11 29 25 42 14 13 25 29 25 36 0 7 8
19 19 26 10 7 25 27 35 45 9 18 22 36 28 40 15 9 36 40 44 65 3 9 13 19 21 22
9 4 12 13 8 26 -5 16 -2 20 15 20 13 0 24 9 30 25 11 28 28 33 121 39 36 2 75
8 85 14 24 14 28 14 41 1z m653 -44 c-7 -8 -19 -15 -26 -15 -8 0 -14 7 -14 15
0 10 10 15 26 15 22 0 25 -2 14 -15z m-585 -55 c4 -6 2 -17 -4 -23 -5 -7 -8
-22 -5 -34 5 -19 2 -20 -42 -19 -48 2 -70 20 -40 32 9 3 16 12 16 18 0 30 60
50 75 26z m-25 -100 c0 -5 -7 -13 -15 -18 -12 -6 -14 -18 -9 -51 4 -23 13 -45
20 -48 19 -7 18 -33 -1 -33 -9 0 -18 7 -22 16 -4 12 -8 13 -14 3 -4 -7 -3 -19
3 -26 30 -37 -32 -19 -75 21 -15 14 -32 26 -38 26 -14 0 -11 26 6 40 14 12 14
15 -1 31 -10 11 -15 21 -13 23 17 17 159 31 159 16z m60 -16 c-13 -15 -40 -19
-40 -6 0 13 7 18 30 19 18 2 19 -1 10 -13z m-547 -17 c3 -8 1 -20 -4 -28 -8
-12 -10 -12 -18 0 -10 15 -4 41 9 41 4 0 10 -6 13 -13z m237 -117 c0 -11 6
-23 14 -26 23 -9 26 -31 10 -69 -12 -29 -19 -35 -34 -30 -15 5 -23 0 -30 -17
-17 -41 -39 -63 -51 -51 -13 13 26 73 48 73 16 0 18 86 2 95 -7 5 -4 14 7 26
22 25 34 24 34 -1z m110 -10 c0 -5 -7 -10 -15 -10 -8 0 -15 5 -15 10 0 6 7 10
15 10 8 0 15 -4 15 -10z m-220 -14 c0 -8 -4 -18 -10 -21 -5 -3 -10 3 -10 14 0
12 5 21 10 21 6 0 10 -6 10 -14z m-10 -58 c0 -6 7 -16 15 -22 10 -7 12 -16 5
-26 -7 -12 -10 -11 -16 5 -4 11 -14 25 -22 31 -8 6 -12 16 -8 23 8 13 26 6 26
-11z m296 -22 c3 -8 4 -22 2 -31 -3 -14 -5 -14 -22 -2 -12 9 -17 20 -13 31 8
20 26 21 33 2z m-540 -51 c16 -34 16 -37 -2 -57 -57 -63 -74 -78 -88 -78 -9 0
-16 1 -16 3 0 1 4 18 10 37 9 35 9 35 -43 -22 -29 -32 -56 -58 -60 -58 -15 0
-4 37 26 94 27 51 38 61 70 70 22 6 36 14 32 18 -12 12 5 28 30 28 18 0 29 -9
41 -35z m214 20 c0 -10 -7 -15 -17 -13 -14 2 -20 -8 -28 -40 -6 -24 -15 -46
-20 -50 -6 -4 -10 -13 -10 -19 0 -7 -4 -13 -10 -13 -12 0 -15 60 -4 75 4 6 9
21 11 35 2 18 9 25 25 25 12 0 25 4 29 8 12 12 24 8 24 -8z m240 -13 c0 -13
-12 -22 -22 -16 -10 6 -1 24 13 24 5 0 9 -4 9 -8z m-80 -37 c0 -8 -6 -15 -14
-15 -7 0 -19 7 -26 15 -11 13 -8 15 14 15 16 0 26 -5 26 -15z m108 -22 c2 -14
-4 -22 -17 -26 -17 -4 -21 0 -21 17 0 41 32 48 38 9z m-242 -60 c-5 -11 -10
-13 -17 -6 -7 7 -7 17 3 32 10 18 14 19 16 6 2 -9 1 -23 -2 -32z m134 -3 c0
-11 -7 -20 -15 -20 -8 0 -15 9 -15 20 0 11 7 20 15 20 8 0 15 -9 15 -20z m46
-28 c-9 -9 -37 8 -31 18 5 8 11 7 21 -1 8 -6 12 -14 10 -17z m-526 -17 c0 -8
-4 -15 -9 -15 -13 0 -22 16 -14 24 11 11 23 6 23 -9z m290 -33 c0 -13 -12 -22
-22 -16 -10 6 -1 24 13 24 5 0 9 -4 9 -8z m453 -157 c1 -5 -6 -11 -15 -13 -11
-2 -18 3 -18 13 0 17 30 18 33 0z m-183 -50 c0 -8 -7 -15 -16 -15 -14 0 -14 3
-4 15 7 8 14 15 16 15 2 0 4 -7 4 -15z m200 5 c0 -12 -28 -25 -36 -17 -9 9 6
27 22 27 8 0 14 -5 14 -10z m-160 -137 c0 -25 -1 -26 -16 -11 -9 9 -13 21 -10
27 13 20 26 11 26 -16z m-100 -24 c0 -5 -7 -9 -15 -9 -15 0 -20 12 -9 23 8 8
24 -1 24 -14z"/>
<path d="M5675 1460 c-4 -6 -13 -9 -21 -6 -8 3 -14 2 -14 -3 0 -12 43 -22 52
-13 4 4 3 13 -1 21 -6 10 -10 10 -16 1z"/>
<path d="M5482 1328 c3 -7 17 -15 33 -16 25 -3 27 -2 16 12 -16 19 -55 22 -49
4z"/>
<path d="M11300 11009 c0 -5 5 -7 10 -4 6 3 10 8 10 11 0 2 -4 4 -10 4 -5 0
-10 -5 -10 -11z"/>
<path d="M10947 10804 c6 -15 23 -19 23 -5 0 5 -7 11 -14 14 -10 4 -13 1 -9
-9z"/>
<path d="M11060 10780 c0 -5 -9 -10 -20 -10 -24 0 -24 1 -4 -39 13 -26 21 -32
42 -29 37 4 57 46 35 70 -17 19 -53 25 -53 8z"/>
<path d="M10550 10702 c0 -5 -9 -19 -20 -32 -28 -32 -18 -37 14 -7 26 25 34
47 16 47 -5 0 -10 -4 -10 -8z"/>
<path d="M10617 10673 c-12 -11 -8 -23 8 -23 8 0 15 7 15 15 0 16 -12 20 -23
8z"/>
<path d="M10390 10630 c0 -5 5 -10 11 -10 5 0 7 5 4 10 -3 6 -8 10 -11 10 -2
0 -4 -4 -4 -10z"/>
<path d="M11135 10610 c-3 -5 -1 -10 4 -10 6 0 11 5 11 10 0 6 -2 10 -4 10 -3
0 -8 -4 -11 -10z"/>
<path d="M10345 10600 c-3 -5 -1 -10 4 -10 6 0 11 5 11 10 0 6 -2 10 -4 10 -3
0 -8 -4 -11 -10z"/>
<path d="M10553 10591 c-8 -20 -64 -70 -80 -71 -14 0 -18 -22 -6 -33 3 -4 13
-2 20 5 11 9 19 9 35 -1 15 -9 23 -10 31 -2 8 8 6 11 -6 11 -10 0 -17 8 -17
20 0 24 37 28 42 5 2 -10 16 -3 47 26 24 22 42 42 40 43 -2 2 -26 6 -52 9 -39
4 -50 1 -54 -12z"/>
<path d="M10387 10550 c-3 -13 0 -20 9 -20 7 0 18 9 24 20 9 17 8 20 -8 20
-11 0 -22 -9 -25 -20z"/>
<path d="M11090 10560 c0 -5 5 -10 10 -10 6 0 10 5 10 10 0 6 -4 10 -10 10 -5
0 -10 -4 -10 -10z"/>
<path d="M10895 10490 c-9 -15 18 -50 40 -50 19 0 18 2 -4 19 -13 10 -21 23
-17 30 4 6 3 11 -3 11 -5 0 -12 -4 -16 -10z"/>
<path d="M6810 10010 c-6 -11 -8 -20 -5 -20 14 0 45 21 45 30 0 18 -29 10 -40
-10z"/>
<path d="M6318 9903 c7 -3 16 -2 19 1 4 3 -2 6 -13 5 -11 0 -14 -3 -6 -6z"/>
<path d="M6226 9811 c-9 -14 22 -21 49 -11 14 5 25 12 25 15 0 9 -69 5 -74 -4z"/>
<path d="M6018 9543 c7 -3 16 -2 19 1 4 3 -2 6 -13 5 -11 0 -14 -3 -6 -6z"/>
<path d="M4836 9045 c-7 -20 3 -45 19 -45 20 0 24 12 14 38 -10 25 -24 29 -33
7z"/>
<path d="M4164 8356 c-10 -8 -16 -17 -13 -20 3 -3 14 1 25 8 10 8 16 17 13 20
-3 3 -14 -1 -25 -8z"/>
<path d="M4050 8242 c0 -7 4 -20 9 -30 5 -9 13 -26 17 -37 6 -17 8 -17 11 -4
2 9 -5 32 -16 50 -12 19 -21 28 -21 21z"/>
<path d="M3800 7959 c0 -5 5 -7 10 -4 6 3 10 8 10 11 0 2 -4 4 -10 4 -5 0 -10
-5 -10 -11z"/>
<path d="M12103 7823 c-3 -10 -8 -22 -10 -28 -3 -5 3 -1 11 9 16 20 21 36 11
36 -3 0 -8 -8 -12 -17z"/>
<path d="M3747 7823 c-4 -3 -7 -11 -7 -17 0 -6 5 -5 12 2 6 6 9 14 7 17 -3 3
-9 2 -12 -2z"/>
<path d="M3496 7643 c-12 -12 -6 -33 9 -33 8 0 15 6 15 14 0 17 -14 28 -24 19z"/>
<path d="M3096 7471 c-7 -10 20 -41 35 -41 6 0 6 7 -1 19 -13 25 -27 34 -34
22z"/>
<path d="M2860 6660 c0 -5 5 -10 10 -10 6 0 10 5 10 10 0 6 -4 10 -10 10 -5 0
-10 -4 -10 -10z"/>
<path d="M2221 5816 c-13 -15 -7 -36 9 -36 12 0 22 32 12 42 -5 5 -14 2 -21
-6z"/>
<path d="M11258 4738 c9 -9 15 -9 24 0 9 9 7 12 -12 12 -19 0 -21 -3 -12 -12z"/>
<path d="M11422 4365 c4 -32 22 -38 26 -9 2 13 -4 24 -13 28 -13 5 -16 0 -13
-19z"/>
<path d="M2450 4234 c0 -8 5 -12 10 -9 6 3 10 10 10 16 0 5 -4 9 -10 9 -5 0
-10 -7 -10 -16z"/>
<path d="M545 4210 c3 -5 8 -10 11 -10 2 0 4 5 4 10 0 6 -5 10 -11 10 -5 0 -7
-4 -4 -10z"/>
<path d="M11236 4111 c-9 -13 4 -41 19 -41 8 0 10 9 7 25 -4 25 -16 32 -26 16z"/>
<path d="M11155 4039 c-11 -17 1 -21 15 -4 8 9 8 15 2 15 -6 0 -14 -5 -17 -11z"/>
<path d="M11115 3916 c-10 -14 -23 -26 -29 -26 -24 0 -47 -25 -40 -43 6 -16 9
-16 23 -4 9 8 26 18 37 21 14 4 24 18 28 38 8 41 2 46 -19 14z"/>
<path d="M11000 3801 c-5 -11 -10 -24 -10 -30 0 -6 -16 -33 -36 -61 -26 -37
-42 -50 -61 -50 -18 0 -24 -5 -21 -17 2 -14 13 -18 43 -18 35 0 40 3 43 24 2
14 15 39 28 56 13 18 24 40 24 50 0 10 10 29 22 42 l21 23 -21 0 c-12 0 -26
-9 -32 -19z"/>
<path d="M2025 3800 c-3 -5 1 -10 9 -10 8 0 18 5 21 10 3 6 -1 10 -9 10 -8 0
-18 -4 -21 -10z"/>
<path d="M1923 3633 c-15 -5 -18 -43 -4 -43 9 0 26 39 19 44 -1 2 -9 1 -15 -1z"/>
<path d="M10846 3481 c-4 -7 -5 -15 -2 -18 9 -9 19 4 14 18 -4 11 -6 11 -12 0z"/>
<path d="M10806 3416 c3 -9 11 -16 16 -16 13 0 5 23 -10 28 -7 2 -10 -2 -6
-12z"/>
<path d="M1364 3379 c-4 -7 3 -19 16 -29 26 -20 19 -40 -14 -40 -27 0 -36 -29
-36 -111 0 -72 39 -65 54 9 3 19 12 48 20 65 25 58 27 70 11 93 -17 26 -39 31
-51 13z"/>
<path d="M1533 3368 c-8 -18 -6 -26 10 -38 19 -16 19 -17 -17 -56 -20 -21 -36
-44 -36 -49 0 -6 -9 -16 -20 -23 -11 -7 -20 -21 -20 -31 0 -11 -12 -28 -26
-38 -22 -16 -27 -29 -31 -86 l-6 -67 32 0 c18 0 41 -4 51 -10 14 -8 21 -5 34
15 9 14 21 25 26 25 14 0 12 -46 -2 -70 -16 -25 -6 -33 46 -36 38 -2 45 1 54
22 7 13 18 24 25 24 16 0 57 41 57 57 0 5 9 18 20 28 11 10 20 31 20 47 0 26
3 29 28 27 15 -1 35 2 45 6 9 4 25 4 34 1 9 -4 20 -1 24 6 10 17 -31 37 -53
26 -13 -6 -20 -3 -28 12 -13 24 -28 25 -51 4 -24 -21 -66 -11 -80 20 -9 19 -5
31 21 75 18 29 30 54 28 57 -10 10 -58 -16 -73 -40 -12 -17 -15 -35 -10 -56 6
-26 4 -30 -14 -30 -26 0 -28 3 -36 83 l-8 69 29 -4 c42 -5 45 12 4 27 -19 7
-42 15 -51 19 -11 5 -19 0 -26 -16z m136 -237 c17 -11 7 -41 -12 -41 -19 0
-40 26 -32 40 8 12 25 13 44 1z"/>
<path d="M10702 3288 c-7 -7 -12 -21 -12 -32 1 -20 1 -20 20 3 29 34 22 59 -8
29z"/>
<path d="M1763 3254 c-34 -26 -42 -48 -22 -60 15 -9 45 24 53 59 3 15 5 27 4
27 -2 0 -18 -12 -35 -26z"/>
<path d="M10666 3173 c-6 -14 -5 -15 5 -6 7 7 10 15 7 18 -3 3 -9 -2 -12 -12z"/>
<path d="M10488 3125 c-5 -25 -4 -25 10 -11 12 11 13 19 5 27 -7 7 -12 3 -15
-16z"/>
<path d="M2450 3045 c0 -8 5 -15 10 -15 6 0 10 7 10 15 0 8 -4 15 -10 15 -5 0
-10 -7 -10 -15z"/>
<path d="M1787 2990 c-19 -16 -40 -30 -46 -30 -6 0 -14 -13 -17 -30 -4 -18
-13 -30 -22 -30 -13 0 -14 -2 -3 -12 10 -11 18 -6 42 22 16 19 29 39 29 45 0
5 15 17 32 25 18 8 34 21 36 28 6 21 -16 13 -51 -18z"/>
<path d="M10172 2928 c-14 -14 -16 -28 -3 -28 9 0 24 30 18 36 -2 2 -9 -2 -15
-8z"/>
<path d="M2285 2920 c-3 -5 -1 -10 4 -10 6 0 11 5 11 10 0 6 -2 10 -4 10 -3 0
-8 -4 -11 -10z"/>
<path d="M3785 2830 c-3 -5 1 -10 9 -10 8 0 18 5 21 10 3 6 -1 10 -9 10 -8 0
-18 -4 -21 -10z"/>
<path d="M3500 2805 c-7 -9 -10 -18 -7 -21 10 -11 37 5 37 21 0 19 -14 19 -30
0z"/>
<path d="M2135 2716 c11 -8 24 -12 29 -8 5 3 1 9 -10 13 -31 12 -39 10 -19 -5z"/>
<path d="M3369 2673 c-13 -16 -12 -17 4 -4 16 13 21 21 13 21 -2 0 -10 -8 -17
-17z"/>
<path d="M10465 2620 c3 -5 8 -10 11 -10 2 0 4 5 4 10 0 6 -5 10 -11 10 -5 0
-7 -4 -4 -10z"/>
<path d="M9590 2570 c0 -5 5 -10 11 -10 5 0 7 5 4 10 -3 6 -8 10 -11 10 -2 0
-4 -4 -4 -10z"/>
<path d="M1850 2541 c0 -6 5 -13 10 -16 6 -3 10 1 10 9 0 9 -4 16 -10 16 -5 0
-10 -4 -10 -9z"/>
<path d="M9431 2504 c0 -11 3 -14 6 -6 3 7 2 16 -1 19 -3 4 -6 -2 -5 -13z"/>
<path d="M9500 2514 c0 -6 5 -15 11 -21 11 -11 -9 -102 -32 -145 -6 -11 -6
-18 0 -18 12 0 48 79 56 123 5 25 2 37 -14 51 -12 11 -21 15 -21 10z"/>
<path d="M1597 2383 c-12 -12 -7 -22 8 -17 8 4 15 10 15 15 0 11 -14 12 -23 2z"/>
<path d="M9562 2353 c-18 -32 -16 -51 4 -31 9 8 14 24 12 34 -4 18 -5 17 -16
-3z"/>
<path d="M9627 2339 c-9 -17 -17 -38 -17 -47 -1 -28 -38 -102 -52 -102 -7 0
-21 12 -31 28 l-18 27 7 -40 c4 -22 11 -45 15 -51 6 -7 4 -16 -6 -24 -12 -10
-21 -6 -51 24 -40 40 -44 42 -44 21 0 -8 5 -15 10 -15 18 0 11 -74 -10 -108
-16 -26 -25 -32 -41 -27 -40 13 -49 -9 -42 -106 3 -55 2 -99 -5 -112 -12 -26
-32 -86 -32 -98 0 -5 11 -3 25 3 14 6 27 9 30 6 3 -2 1 -26 -4 -52 -8 -46 5
-79 16 -38 2 11 13 22 24 25 11 3 19 14 19 26 0 11 8 37 17 56 15 32 21 36 45
31 38 -8 56 25 34 59 -21 33 -20 52 4 67 19 12 120 203 120 227 0 6 -4 11 -10
11 -5 0 -10 -4 -10 -10 0 -5 -9 -10 -20 -10 -17 0 -20 7 -20 40 0 28 5 42 19
49 10 6 23 27 29 48 5 21 16 53 23 70 18 45 0 62 -24 22z m-48 -253 c15 -18 4
-66 -16 -66 -8 0 -13 -8 -12 -17 3 -34 -1 -41 -31 -52 -43 -14 -54 13 -18 44
13 11 23 26 21 32 -5 14 24 73 36 73 5 0 14 -6 20 -14z m-194 -136 c-5 -8 -11
-8 -17 -2 -6 6 -7 16 -3 22 5 8 11 8 17 2 6 -6 7 -16 3 -22z"/>
<path d="M9395 2291 c3 -10 -1 -23 -8 -30 -17 -13 -10 -65 7 -56 6 3 19 8 28
11 29 10 7 93 -25 94 -5 0 -6 -8 -2 -19z"/>
<path d="M9486 2276 c8 -20 34 -29 34 -12 0 8 -7 17 -16 20 -22 9 -24 8 -18
-8z"/>
<path d="M1345 2200 c-3 -5 -2 -10 4 -10 5 0 13 5 16 10 3 6 2 10 -4 10 -5 0
-13 -4 -16 -10z"/>
<path d="M1245 2179 c-10 -15 3 -25 16 -12 7 7 7 13 1 17 -6 3 -14 1 -17 -5z"/>
<path d="M9330 2162 c0 -22 4 -32 12 -30 18 6 20 22 3 43 -14 19 -14 18 -15
-13z"/>
<path d="M1300 2163 c0 -5 4 -15 10 -23 11 -18 25 -7 17 15 -6 15 -27 21 -27
8z"/>
<path d="M1191 2125 c-1 -16 3 -37 9 -45 16 -26 19 -5 5 35 -14 39 -14 39 -14
10z"/>
<path d="M9120 2090 c19 -13 30 -13 30 0 0 6 -10 10 -22 10 -19 0 -20 -2 -8
-10z"/>
<path d="M1195 2050 c-3 -5 -1 -10 4 -10 6 0 11 5 11 10 0 6 -2 10 -4 10 -3 0
-8 -4 -11 -10z"/>
<path d="M9263 2033 c-8 -2 -13 -22 -13 -44 0 -22 4 -38 9 -35 5 3 7 16 4 27
-4 14 0 25 11 31 29 16 19 34 -11 21z"/>
<path d="M949 1970 c-14 -11 -18 -19 -11 -20 19 0 52 19 52 30 0 16 -16 12
-41 -10z"/>
<path d="M1040 1970 c0 -11 5 -20 10 -20 6 0 10 9 10 20 0 11 -4 20 -10 20 -5
0 -10 -9 -10 -20z"/>
<path d="M9277 1903 c-11 -10 -8 -113 3 -113 6 0 10 27 10 60 0 61 -1 65 -13
53z"/>
<path d="M920 1881 c0 -9 23 -21 40 -21 4 0 10 7 14 15 4 11 -2 15 -24 15 -17
0 -30 -4 -30 -9z"/>
<path d="M2155 1870 c-3 -5 -1 -10 4 -10 6 0 11 5 11 10 0 6 -2 10 -4 10 -3 0
-8 -4 -11 -10z"/>
<path d="M850 1820 c0 -13 5 -20 13 -17 6 2 12 10 12 17 0 7 -6 15 -12 18 -8
2 -13 -5 -13 -18z"/>
<path d="M9162 1831 c-11 -7 -11 -9 2 -14 10 -4 16 -1 16 8 0 17 -1 17 -18 6z"/>
<path d="M2074 1809 l-19 -22 33 17 c34 18 40 26 19 26 -8 0 -22 -10 -33 -21z"/>
<path d="M704 1771 c-17 -9 -36 -29 -42 -45 -7 -19 -16 -27 -26 -23 -9 4 -16
-3 -20 -19 -4 -15 -14 -24 -26 -24 -15 0 -20 -7 -20 -25 0 -20 -6 -27 -30 -31
-16 -4 -30 -10 -30 -15 0 -5 -10 -9 -22 -9 -13 0 -31 -12 -41 -25 -18 -25 -18
-25 7 -25 15 0 31 9 38 20 7 11 18 20 24 20 6 0 16 6 22 13 6 7 44 29 84 50
40 21 90 53 111 71 33 30 36 36 27 60 -11 29 -13 30 -56 7z"/>
<path d="M1845 1760 c-3 -5 1 -10 9 -10 9 0 16 5 16 10 0 6 -4 10 -9 10 -6 0
-13 -4 -16 -10z"/>
<path d="M10497 1763 c-4 -3 -7 -11 -7 -17 0 -6 5 -5 12 2 6 6 9 14 7 17 -3 3
-9 2 -12 -2z"/>
<path d="M1949 1724 c-11 -14 -10 -15 11 -12 13 1 25 9 28 16 5 17 -23 15 -39
-4z"/>
<path d="M9000 1702 c0 -10 4 -22 9 -27 6 -6 11 -32 13 -60 3 -46 4 -48 16
-28 10 19 10 29 -3 59 -8 20 -15 45 -15 55 0 11 -4 19 -10 19 -5 0 -10 -8 -10
-18z"/>
<path d="M1860 1680 c-36 -34 -33 -52 8 -41 17 5 26 14 24 24 -1 8 8 23 20 31
22 16 22 16 1 16 -11 0 -35 -13 -53 -30z"/>
<path d="M9080 1699 c0 -5 5 -7 10 -4 6 3 10 8 10 11 0 2 -4 4 -10 4 -5 0 -10
-5 -10 -11z"/>
<path d="M9260 1671 c0 -5 5 -13 10 -16 6 -3 10 -2 10 4 0 5 -4 13 -10 16 -5
3 -10 2 -10 -4z"/>
<path d="M9147 1663 c-8 -8 -9 -83 -2 -83 11 0 42 35 49 54 9 26 -28 49 -47
29z"/>
<path d="M10336 1645 c4 -8 10 -12 15 -9 11 6 2 24 -11 24 -5 0 -7 -7 -4 -15z"/>
<path d="M9211 1596 c-9 -10 -9 -16 -1 -21 13 -8 42 14 34 26 -8 13 -20 11
-33 -5z"/>
<path d="M1677 1553 c-10 -9 -9 -23 2 -23 5 0 11 7 15 15 5 15 -5 20 -17 8z"/>
<path d="M620 1539 c0 -5 5 -7 10 -4 6 3 10 8 10 11 0 2 -4 4 -10 4 -5 0 -10
-5 -10 -11z"/>
<path d="M9176 1534 c-3 -9 -6 -23 -6 -32 1 -15 3 -14 15 2 17 22 20 46 6 46
-5 0 -12 -7 -15 -16z"/>
<path d="M9461 1536 c-14 -17 5 -66 25 -66 21 0 37 37 19 44 -8 3 -15 12 -15
21 0 19 -14 19 -29 1z"/>
<path d="M715 1520 c-3 -5 -1 -10 4 -10 6 0 11 5 11 10 0 6 -2 10 -4 10 -3 0
-8 -4 -11 -10z"/>
<path d="M1595 1510 c-10 -11 -28 -20 -40 -20 -29 0 -62 -47 -46 -63 9 -9 13
-6 18 11 4 15 16 25 34 29 16 3 29 12 29 19 0 8 10 14 25 14 16 0 25 6 25 15
0 21 -24 19 -45 -5z"/>
<path d="M6532 1508 c-7 -7 -12 -18 -12 -24 0 -7 -12 -26 -26 -43 -15 -18 -24
-38 -20 -47 10 -26 86 72 86 110 0 19 -11 21 -28 4z"/>
<path d="M1393 1475 c-10 -27 6 -30 30 -7 l21 22 -22 0 c-12 0 -25 -7 -29 -15z"/>
<path d="M8945 1469 c-4 -6 -5 -13 -2 -16 7 -7 27 6 27 18 0 12 -17 12 -25 -2z"/>
<path d="M745 1460 c-3 -5 -2 -10 4 -10 5 0 13 5 16 10 3 6 2 10 -4 10 -5 0
-13 -4 -16 -10z"/>
<path d="M9033 1443 c3 -14 0 -23 -6 -24 -7 0 -25 -2 -40 -3 -16 -1 -32 -8
-37 -15 -4 -8 -32 -18 -62 -23 -160 -25 -174 -30 -162 -61 3 -9 14 -17 24 -17
11 0 22 -5 25 -11 4 -5 18 -15 32 -20 21 -8 25 -14 20 -39 -5 -23 -2 -30 13
-35 26 -8 26 -35 0 -35 -25 0 -25 -8 0 -38 18 -22 20 -22 50 -7 17 9 35 26 39
38 5 12 25 38 45 57 21 19 48 54 62 77 13 23 32 47 42 52 9 5 13 13 9 17 -4 4
-13 0 -20 -8 -6 -9 -27 -19 -44 -23 -26 -5 -33 -3 -33 9 0 9 11 23 24 31 27
18 42 73 25 89 -9 8 -10 5 -6 -11z m-205 -126 c2 -10 -3 -17 -11 -17 -18 0
-39 24 -30 34 12 12 38 2 41 -17z m70 1 c-6 -18 -28 -21 -28 -4 0 9 7 16 16
16 9 0 14 -5 12 -12z m112 -28 c0 -11 -7 -20 -15 -20 -15 0 -21 21 -8 33 12
13 23 7 23 -13z m-50 -52 c0 -13 -39 -58 -51 -58 -15 0 -17 29 -3 49 16 22 54
29 54 9z"/>
<path d="M1300 1405 c0 -9 6 -12 15 -9 8 4 15 10 15 15 0 5 -7 9 -15 9 -8 0
-15 -7 -15 -15z"/>
<path d="M9105 1400 c-3 -5 -1 -10 4 -10 6 0 11 5 11 10 0 6 -2 10 -4 10 -3 0
-8 -4 -11 -10z"/>
<path d="M1195 1336 c0 -23 1 -23 17 -9 18 16 16 33 -5 33 -7 0 -12 -11 -12
-24z"/>
<path d="M6440 1330 c0 -11 2 -20 4 -20 2 0 6 9 9 20 3 11 1 20 -4 20 -5 0 -9
-9 -9 -20z"/>
<path d="M1125 1270 c-3 -5 -2 -10 4 -10 5 0 13 5 16 10 3 6 2 10 -4 10 -5 0
-13 -4 -16 -10z"/>
<path d="M775 1200 c-3 -5 -2 -10 4 -10 5 0 13 5 16 10 3 6 2 10 -4 10 -5 0
-13 -4 -16 -10z"/>
<path d="M9113 1193 c-7 -2 -13 -13 -13 -24 0 -11 -13 -33 -30 -49 -16 -16
-30 -34 -30 -40 0 -5 -7 -10 -15 -10 -8 0 -15 9 -15 20 0 11 -3 20 -6 20 -13
0 -104 -82 -104 -93 1 -13 74 -67 90 -67 5 0 13 -7 18 -16 16 -29 48 0 62 55
10 43 16 50 53 66 36 15 39 19 20 22 -27 5 -28 10 -9 53 7 18 11 41 9 51 -5
20 -9 21 -30 12z m-67 -199 c7 -26 -7 -44 -33 -44 -13 0 -18 51 -6 63 14 15
33 6 39 -19z"/>
<path d="M970 1175 c-16 -19 0 -19 26 0 16 12 16 14 3 15 -9 0 -22 -7 -29 -15z"/>
<path d="M704 1166 c-10 -8 -16 -17 -13 -20 3 -3 14 3 24 14 21 23 17 26 -11
6z"/>
<path d="M9200 1058 c0 -4 5 -8 10 -8 6 0 15 -12 21 -27 12 -31 33 -18 27 18
-2 17 -10 23 -30 24 -16 0 -28 -3 -28 -7z"/>
<path d="M5960 877 c0 -7 9 -18 20 -25 23 -14 26 -5 6 21 -16 20 -26 22 -26 4z"/>
<path d="M8963 868 c-17 -19 -17 -21 10 -44 16 -14 41 -24 58 -24 34 0 33 0
15 44 -17 41 -57 53 -83 24z"/>
</g>
</svg>
